<svg width="45" height="44" viewBox="0 0 45 44" fill="none" xmlns="http://www.w3.org/2000/svg">
<path d="M22.3914 3.0329C33.0936 3.0329 41.7829 11.3906 41.7829 21.6842C41.7829 31.9779 33.0936 40.3355 22.3914 40.3355C11.6893 40.3355 3 31.9779 3 21.6842C3 11.3906 11.6893 3.0329 22.3914 3.0329Z" fill="#FFD426"/>
<path d="M22.3914 3.0329C33.0936 3.0329 41.7829 11.3906 41.7829 21.6842C41.7829 31.9779 33.0936 40.3355 22.3914 40.3355C11.6893 40.3355 3 31.9779 3 21.6842C3 11.3906 11.6893 3.0329 22.3914 3.0329Z" stroke="white" stroke-width="6"/>
<path d="M33.9605 14.8295C36.3878 14.322 38.787 15.8055 39.3147 18.1401C39.8424 20.4748 38.3 22.7824 35.8727 23.2899C33.4454 23.7975 31.0462 22.314 30.5186 19.9794C29.9909 17.6447 31.5332 15.3371 33.9605 14.8295Z" fill="#984DFF"/>
<path d="M19.8535 9.26884C27.7345 7.62095 35.3959 11.6063 37.0409 18.2854L37.091 18.4875L34.7741 18.972C33.5317 13.4753 27.1056 10.0863 20.3572 11.4973C13.6821 12.8931 9.31785 18.4472 10.4357 23.8919L10.4722 24.0534L8.15528 24.5379C6.61895 17.7406 11.8993 10.932 19.8535 9.26884Z" fill="#B06BFF"/>
<path d="M25.7068 17.7957C26.409 20.9024 29.5966 22.8733 32.8265 22.198C36.0565 21.5226 38.1056 18.4567 37.4035 15.35C36.7013 12.2434 33.5137 10.2724 30.2838 10.9478C27.0538 11.6232 25.0047 14.6891 25.7068 17.7957Z" fill="#303135"/>
<path d="M9.38906 27.634C7.87051 20.9154 15.0806 14.3237 21.0849 12.7732L21.6318 12.6589C27.5979 11.6977 34.8114 12.983 37.4253 20.2578C37.5725 20.6695 37.7575 21.0689 37.975 21.4529C41.7849 28.252 33.7985 32.2471 26.4328 33.9L26.4337 33.9041C26.3432 33.923 26.2528 33.9419 26.1614 33.9567C26.0676 33.9807 25.9772 33.9996 25.8868 34.0185L25.8858 34.0143C18.2681 35.4901 10.9179 34.3982 9.38906 27.634Z" fill="white"/>
<path d="M27.1708 21.7178C27.89 21.5674 28.337 21.7689 28.4259 22.1624C28.5149 22.556 28.0958 23.0166 27.4929 23.1427C26.89 23.2688 26.3056 23.0179 26.2167 22.6244C26.1277 22.2309 26.4473 21.8691 27.1708 21.7178Z" fill="#303135"/>
<path d="M35.0075 28.0471C36.9627 27.6383 38.4818 25.0606 37.7253 21.7137C36.923 18.1638 33.7912 15.6216 31.5413 16.1832C28.998 16.8234 28.8656 20.2087 29.3946 22.3494C30.257 25.826 32.4279 28.5865 35.0075 28.0471Z" fill="#303135"/>
<path d="M30.3431 21.9446C30.7092 23.5642 31.9931 24.6752 33.2118 24.4204C34.4349 24.1646 35.1234 22.6412 34.7573 21.0216C34.3903 19.3979 33.1064 18.2869 31.8833 18.5426C30.6646 18.7975 29.9761 20.3209 30.3431 21.9446Z" fill="white"/>
<path d="M32.272 19.5857C32.9773 19.4339 33.4748 19.8591 33.804 20.5971C33.963 20.9413 34.0759 21.3211 34.1858 21.8274L34.247 22.1182C34.2583 22.1679 34.2652 22.2185 34.2774 22.2724C34.3305 22.5476 34.139 22.8175 33.8529 22.8687C33.5625 22.9207 33.2827 22.7406 33.2286 22.4613L33.1755 22.1861L33.1202 21.9417L33.0654 21.719C32.9921 21.4349 32.9172 21.2033 32.8264 21.0011C32.6736 20.6643 32.5675 20.5737 32.5072 20.5863C32.3521 20.6188 32.2761 20.8212 32.3089 21.2655L32.3263 21.4223C32.3299 21.478 32.3387 21.5369 32.3475 21.5958L32.3829 21.7923L32.4345 22.0808L32.5317 22.5506C32.5849 22.8258 32.3933 23.0958 32.1072 23.1469C31.8168 23.199 31.5362 23.0147 31.483 22.7396L31.3476 22.0608L31.3304 21.9646C31.0929 20.6348 31.2489 19.8083 32.272 19.5857Z" fill="#303135"/>
<path d="M24.6187 23.558C25.3252 27.1626 23.9446 30.7525 20.2927 31.5161C17.5236 32.0951 14.1804 30.4733 13.4042 27.0395C12.5794 23.3902 15.3289 19.5315 18.5622 18.9508C22.2255 18.2976 24.1833 21.3326 24.6187 23.558Z" fill="#303135"/>
<path d="M22.7328 23.7385C23.1092 25.4036 22.075 27.034 20.4213 27.3798C18.7719 27.7247 17.1273 26.6544 16.751 24.9893C16.3737 23.32 17.4078 21.6896 19.0572 21.3447C20.711 20.9989 22.3555 22.0692 22.7328 23.7385Z" fill="white"/>
<path d="M19.2457 22.3082C20.4878 22.0571 21.148 22.7433 21.5553 24.0463L21.6004 24.206L21.6611 24.4146L21.8047 24.9702C21.8817 25.2708 21.6952 25.583 21.3784 25.658C21.0625 25.737 20.7421 25.5567 20.6599 25.2529L20.4895 24.5988L20.4534 24.4589C20.1989 23.5925 19.9531 23.3229 19.488 23.4201C19.2502 23.4655 19.1509 23.6251 19.1328 24.0236C19.1217 24.3339 19.1693 24.684 19.2803 25.1553L19.3455 25.4237C19.3558 25.4692 19.3713 25.518 19.3825 25.5677C19.4647 25.8716 19.273 26.1806 18.9614 26.2588C18.6456 26.3378 18.3243 26.1534 18.2421 25.8496L18.2022 25.6931L18.128 25.4049C17.9964 24.8425 17.9344 24.4087 17.9546 23.9793C17.9889 23.1132 18.4006 22.4806 19.2457 22.3082Z" fill="#303135"/>
<path d="M17.1682 12.1568C16.7767 12.1249 16.4175 12.0113 16.1003 11.8308L16.8248 10.5205C16.9639 10.6013 17.1254 10.6527 17.2968 10.6653C17.9322 10.718 18.4981 10.2303 18.5558 9.58704C18.6079 8.94108 18.1344 8.37272 17.4949 8.32132C16.9278 8.27817 16.4179 8.65877 16.2741 9.19992L14.8468 8.82727C15.1711 7.59494 16.3304 6.7269 17.6235 6.82974C19.0739 6.94508 20.1529 8.23632 20.0258 9.70512C19.8986 11.1739 18.6187 12.2722 17.1682 12.1568Z" fill="#FF5A2E"/>
<path d="M16.5661 6.95119C16.9344 6.83426 17.3136 6.80316 17.6828 6.85112L17.5445 8.32793C17.3801 8.3087 17.2128 8.32163 17.0538 8.37212C16.4428 8.56611 16.1216 9.22606 16.3316 9.83791C16.5429 10.4538 17.2094 10.8002 17.8205 10.6062C18.3603 10.4348 18.6756 9.89277 18.5867 9.33622L20.052 9.1433C20.1956 10.0351 19.8794 10.9122 19.2463 11.4882L19.9366 12.7261L19.8641 13.0058L19.5791 13.2641L19.1748 13.2773L18.8229 13.1323L18.2188 12.051L18.2146 12.0523C16.8589 12.4292 15.3993 11.6516 14.9296 10.283C14.4502 8.88623 15.1809 7.39098 16.5661 6.95119Z" fill="#FF5A2E"/>
<path d="M17.4673 14.2177C17.5008 14.3061 21.947 12.6867 21.9021 12.5876C21.7323 12.2153 20.6287 12.1815 19.4052 12.6152C18.1784 13.0539 17.3147 13.8418 17.4673 14.2177Z" fill="#303135"/>
<path d="M25.7066 26.3773C25.9535 26.7494 26.9464 26.8213 28.0597 26.5885C29.1688 26.3566 30.0028 25.8613 29.9173 25.4831C29.8315 25.1036 29.121 24.9965 27.8018 25.2723C26.1592 25.6158 25.4788 26.0313 25.7066 26.3773Z" fill="#303135"/>
<path d="M27.4843 26.1838C28.3413 26.0046 29.1041 25.973 29.45 26.0824C29.1326 26.2742 28.6794 26.4491 28.1564 26.5685L28.0598 26.5887L27.9716 26.6072C27.2048 26.7575 26.506 26.7607 26.0781 26.6195C26.4289 26.4584 26.9256 26.3007 27.4843 26.1838Z" fill="#FF4433"/>
<path d="M6.25276 21.9989C5.67661 19.0308 7.63047 16.1019 10.6761 15.3696C12.1947 15.0044 13.7443 15.2356 15.0117 15.8946C15.017 15.8978 15.0213 15.8969 15.0265 15.9001C15.4652 16.4244 15.9199 17.0191 13.8113 20.8999C11.3806 25.3904 9.76187 26.0109 9.19228 25.9651C7.81662 25.1466 6.57033 23.6633 6.25276 21.9989Z" fill="#303135"/>
<path d="M13.0996 12.3312C13.6106 11.9381 14.3545 12.0168 14.7632 12.5083C15.172 12.9997 15.0901 13.7153 14.5792 14.1084C11.2455 16.6795 9.65903 20.4555 10.4726 24.0551C10.6112 24.6681 10.2034 25.2783 9.56598 25.4115C8.9243 25.5457 8.29423 25.1526 8.15567 24.5395C7.14175 20.0535 9.08942 15.4211 13.0996 12.3312Z" fill="#B06BFF"/>
<path d="M9.03122 21.4413C11.5863 20.9071 14.1118 22.4686 14.6672 24.9262C15.2227 27.3837 13.5991 29.8128 11.0441 30.347C8.48905 30.8813 5.96356 29.3197 5.40811 26.8622C4.85266 24.4047 6.47617 21.9756 9.03122 21.4413Z" fill="#984DFF"/>
<path d="M7.81368 23.5612C8.96345 23.3208 10.1676 24.3228 10.5008 25.7973C10.8341 27.2718 10.1712 28.6642 9.0214 28.9046C7.87163 29.1451 6.66751 28.1431 6.33424 26.6685C6.00097 25.194 6.6639 23.8016 7.81368 23.5612Z" fill="#D98CFF"/>
<path d="M26.5151 9.58239C26.445 9.42554 26.5852 9.25688 26.7597 9.28783L27.6707 9.44918C27.7439 9.46214 27.8054 9.50929 27.8348 9.57509L27.9964 9.93776C28.0665 10.0946 27.9264 10.2633 27.7519 10.2323L27.2026 10.135L27.8599 11.6088C27.8623 11.6138 27.8644 11.6189 27.8666 11.624L27.8941 11.6854L27.8892 11.6877C27.9644 11.9537 27.8381 12.2873 27.5538 12.5099C27.1999 12.7871 26.7353 12.7873 26.516 12.5108C26.2967 12.2343 26.4057 11.7856 26.7596 11.5084C26.9219 11.3812 27.1074 11.3124 27.282 11.3016L26.5151 9.58239Z" fill="#FF9D33"/>
<path d="M34.8788 6.25265C34.9472 5.94073 35.3497 5.82815 35.5816 6.05586L36.7922 7.2444C36.8894 7.33987 36.9306 7.47544 36.9018 7.60625L36.7433 8.32718C36.6749 8.63909 36.2724 8.75168 36.0405 8.52397L35.3108 7.80728L34.6668 10.7374C34.6649 10.7473 34.6625 10.7573 34.6601 10.7673L34.6333 10.8896L34.6233 10.8879C34.4408 11.3718 33.8751 11.7507 33.1921 11.7965C32.3419 11.8537 31.6323 11.3736 31.6066 10.7246C31.581 10.0756 32.249 9.50325 33.0991 9.44604C33.4891 9.41973 33.8493 9.50651 34.1278 9.67062L34.8788 6.25265Z" fill="#FF9D33"/>
</svg>
