<?xml version="1.0" encoding="utf-8"?>
<!-- Generator: Adobe Illustrator 24.1.2, SVG Export Plug-In . SVG Version: 6.00 Build 0)  -->
<svg version="1.1" id="Слой_1" xmlns="http://www.w3.org/2000/svg" xmlns:xlink="http://www.w3.org/1999/xlink" x="0px" y="0px"
	 viewBox="0 0 375 52.8" style="enable-background:new 0 0 375 52.8;" xml:space="preserve">
<style type="text/css">
	.st0{fill:#C4C4C4;filter:url(#Adobe_OpacityMaskFilter);}
	.st1{mask:url(#mask0_403_3450_1_);}
	.st2{display:none;fill:#FFFFFF;}
	.st3{fill:#E0E6F3;}
	.st4{fill:none;stroke:#E0E6F3;stroke-width:6;stroke-dasharray:1,16;}
</style>
<defs>
	<filter id="Adobe_OpacityMaskFilter" filterUnits="userSpaceOnUse" x="-189.6" y="-695.2" width="754" height="748">
		<feColorMatrix  type="matrix" values="1 0 0 0 0  0 1 0 0 0  0 0 1 0 0  0 0 0 1 0"/>
	</filter>
</defs>
<mask maskUnits="userSpaceOnUse" x="-189.6" y="-695.2" width="754" height="748" id="mask0_403_3450_1_">
	<rect x="0.4" y="-402.2" class="st0" width="375" height="463"/>
</mask>
<g class="st1">
	<circle class="st2" cx="187.4" cy="-321.2" r="374"/>
	<path class="st3" d="M-1.2,1.7c57.3,33.5,122.4,51.1,188.8,51c66.3,0,131.5-17.7,188.7-51.2L375-0.6
		c-56.9,33.3-121.6,50.8-187.5,50.9C121.7,50.3,56.9,32.8,0-0.4L-1.2,1.7z"/>
	<path class="st4" d="M561.4-326.2c0,206.6-167.4,374-374,374c-206.6,0-374-167.4-374-374"/>
</g>
</svg>
