<?xml version="1.0" encoding="UTF-8" standalone="no" ?>
<!DOCTYPE svg PUBLIC "-//W3C//DTD SVG 1.1//EN" "http://www.w3.org/Graphics/SVG/1.1/DTD/svg11.dtd">
<svg xmlns="http://www.w3.org/2000/svg" xmlns:xlink="http://www.w3.org/1999/xlink" version="1.1" width="390" height="50" viewBox="0 0 390 50" xml:space="preserve">
<desc>Created with Fabric.js 4.6.0</desc>
<defs>
</defs>
<g transform="matrix(1.15 0 0 1.15 195 -379.48)" id="6v90fl7DEc8VbslcLuy90"  >
<g style="" vector-effect="non-scaling-stroke"   >
		<g transform="matrix(1 0 0 1 0 0)" id="TDV7vfl_P_UIxxcJkyeqN"  >
<path style="stroke: none; stroke-width: 1; stroke-dasharray: none; stroke-linecap: butt; stroke-dashoffset: 0; stroke-linejoin: miter; stroke-miterlimit: 4; fill: rgb(255,255,255); fill-rule: nonzero; opacity: 1;" vector-effect="non-scaling-stroke"  transform=" translate(-374, -374)" d="M 0 374 C 0 167.4455 167.4455 0 374 0 C 580.5545 0 748 167.4455 748 374 C 748 580.5545 580.5545 748 374 748 C 167.4455 748 0 580.5545 0 374 z" stroke-linecap="round" />
</g>
		<g transform="matrix(1 0 0 1 0.15 347.25)" id="LMYFC6Tr3xtF-1CLU4f0G"  >
<path style="stroke: none; stroke-width: 1; stroke-dasharray: none; stroke-linecap: butt; stroke-dashoffset: 0; stroke-linejoin: miter; stroke-miterlimit: 4; fill: rgb(224,230,243); fill-rule: nonzero; opacity: 1;" vector-effect="non-scaling-stroke"  transform=" translate(-187.55, -26.05)" d="M -1.2 1.7 C 56.099999999999994 35.2 121.2 52.800000000000004 187.60000000000002 52.7 C 253.90000000000003 52.7 319.1 35 376.3 1.5 L 375 -0.6 C 318.1 32.699999999999996 253.4 50.199999999999996 187.5 50.3 C 121.7 50.3 56.9 32.8 0 -0.4 L -1.2 1.7 z" stroke-linecap="round" />
</g>
		<g transform="matrix(1 0 0 1 0 182)" id="2R7BfDi7LfBG8w32oG6Ce"  >
<path style="stroke: rgb(224,230,243); stroke-width: 6; stroke-dasharray: 1 16; stroke-linecap: butt; stroke-dashoffset: 0; stroke-linejoin: miter; stroke-miterlimit: 4; fill: none; fill-rule: nonzero; opacity: 1;" vector-effect="non-scaling-stroke"  transform=" translate(-187.4, 139.2)" d="M 561.4 -326.2 C 561.4 -119.6 394 47.80000000000001 187.39999999999998 47.80000000000001 C -19.200000000000017 47.80000000000001 -186.60000000000002 -119.6 -186.60000000000002 -326.2" stroke-linecap="round" />
</g>
</g>
</g>
</svg>