<svg width="20" height="20" viewBox="0 0 20 20" fill="none" xmlns="http://www.w3.org/2000/svg">
<g clip-path="url(#clip0_403_3458)">
<path d="M19.4798 17.0049L11.6374 9.1625L2.47488 0H1.75883L1.61262 0.371523C1.22672 1.35215 1.06184 2.35512 1.13586 3.27188C1.22024 4.31687 1.61723 5.2216 2.28398 5.88836L9.43672 13.0411L10.3802 12.0977L16.9928 19.4919C17.6507 20.1497 18.7829 20.1888 19.4798 19.4919C20.1655 18.8062 20.1655 17.6906 19.4798 17.0049Z" fill="#2ED12E"/>
<path d="M6.12219 11.3845L0.5202 16.9865C-0.165425 17.6721 -0.165425 18.7877 0.5202 19.4734C1.17153 20.1247 2.29829 20.1822 3.00711 19.4734L8.60915 13.8713L6.12219 11.3845Z" fill="#2ED12E"/>
<path d="M19.1505 3.33004L15.9728 6.50777L15.1437 5.67879L18.3215 2.50101L17.4925 1.67203L14.3148 4.84977L13.4858 4.02078L16.6636 0.843045L15.8346 0.0140991L11.6897 4.15902C11.1826 4.66609 10.8799 5.33938 10.8371 6.05492C10.8262 6.23621 10.7851 6.41453 10.717 6.58414L13.4095 9.27668C13.5791 9.20844 13.7575 9.16739 13.9387 9.15657C14.6543 9.11387 15.3276 8.81102 15.8346 8.30395L19.9796 4.15906L19.1505 3.33004Z" fill="#2ED12E"/>
</g>
<defs>
<clipPath id="clip0_403_3458">
<rect width="20" height="20" fill="white"/>
</clipPath>
</defs>
</svg>
