<svg width="44" height="44" viewBox="0 0 44 44" fill="none" xmlns="http://www.w3.org/2000/svg">
<path d="M26.4607 9.77777C26.9796 9.77655 27.3899 10.1797 27.3911 10.7172L27.3923 11.6334C30.7591 11.8973 32.9831 14.1915 32.9867 17.7097L33 28.0079C33.0048 31.8437 30.595 34.2039 26.7322 34.21L17.2968 34.2222C13.4581 34.2271 11.0181 31.8107 11.0133 27.9639L11 17.7867C10.9952 14.2452 13.1408 11.9571 16.5076 11.6481L16.5063 10.7319C16.5051 10.1943 16.9034 9.78999 17.4343 9.78999C17.9653 9.78877 18.3635 10.1919 18.3647 10.7294L18.3659 11.5845L25.5339 11.5748L25.5327 10.7196C25.5315 10.1821 25.9297 9.779 26.4607 9.77777ZM26.953 27.1234H26.941C26.3859 27.1369 25.9406 27.6023 25.9527 28.1642C25.9539 28.7262 26.4016 29.1892 26.9567 29.2014C27.5226 29.2002 27.9812 28.7347 27.98 28.1606C27.98 27.5864 27.5202 27.1234 26.953 27.1234ZM17.0096 27.1246C16.4545 27.1491 16.02 27.6145 16.0212 28.1765C16.0466 28.7384 16.5051 29.1782 17.0602 29.1525C17.6045 29.1281 18.0377 28.6627 18.0123 28.1007C18.0003 27.551 17.5526 27.1234 17.0096 27.1246ZM21.9813 27.1185C21.4262 27.1442 20.993 27.6084 20.993 28.1703C21.0183 28.7323 21.4769 29.1708 22.032 29.1464C22.575 29.1208 23.0094 28.6565 22.9841 28.0934C22.972 27.5449 22.5243 27.1173 21.9813 27.1185ZM17.0035 22.7268C16.4484 22.7513 16.0152 23.2167 16.0164 23.7787C16.0405 24.3406 16.5003 24.7804 17.0554 24.7547C17.5984 24.7303 18.0317 24.2649 18.0063 23.7029C17.9942 23.1532 17.5478 22.7256 17.0035 22.7268ZM21.9765 22.6841C21.4214 22.7085 20.9869 23.174 20.9882 23.7359C21.0123 24.2978 21.4721 24.7364 22.0272 24.712C22.5702 24.6863 23.0034 24.2221 22.9793 23.6602C22.966 23.1104 22.5195 22.6829 21.9765 22.6841ZM26.9482 22.6902C26.3931 22.7024 25.9587 23.1544 25.9599 23.7164V23.7298C25.972 24.2917 26.4305 24.7181 26.9868 24.7059C27.5299 24.6924 27.9631 24.227 27.951 23.665C27.9257 23.1275 27.49 22.689 26.9482 22.6902ZM25.5363 13.456L18.3683 13.4658L18.3695 14.4541C18.3695 14.9806 17.9725 15.396 17.4416 15.396C16.9106 15.3972 16.5112 14.9831 16.5112 14.4565L16.51 13.5159C14.1568 13.7517 12.8548 15.1345 12.8584 17.7842L12.8596 18.1641L31.1295 18.1397V17.7121C31.0777 15.0857 29.7599 13.7077 27.3947 13.5025L27.3959 14.4431C27.3959 14.9684 26.9868 15.385 26.4679 15.385C25.937 15.3862 25.5375 14.9708 25.5375 14.4455L25.5363 13.456Z" fill="#1A1C24"/>
</svg>
