<svg width="24" height="24" viewBox="0 0 24 24" fill="none" xmlns="http://www.w3.org/2000/svg">
<g clip-path="url(#clip0_10_225)">
<path d="M11.9992 0C5.38112 8.58494e-06 0.00256348 5.3861 0.00256348 12.0033C0.00256348 18.6206 5.38112 24 11.9992 24C18.6173 24 23.9975 18.6206 23.9975 12.0033C23.9975 5.38609 18.6173 -8.55252e-06 11.9992 0ZM11.1454 1.75781V2.57477C11.1463 3.0462 11.5278 3.42841 11.9992 3.43024C12.4733 3.43196 12.8588 3.04881 12.8597 2.57477V1.75781C17.8607 2.17125 21.8313 6.14182 22.2447 11.1429H21.4261C20.9527 11.1446 20.5705 11.53 20.5723 12.0033C20.574 12.4741 20.9553 12.8553 21.4261 12.8571H22.2447C21.8343 17.8608 17.863 21.8291 12.8597 22.2422V21.4319C12.8614 20.9559 12.4752 20.5696 11.9992 20.5714C11.5258 20.5731 11.1436 20.9585 11.1454 21.4319V22.2422C6.1396 21.8321 2.17049 17.863 1.76037 12.8571H2.57065C3.04404 12.8589 3.42929 12.4767 3.43113 12.0033C3.43285 11.5273 3.04665 11.141 2.57065 11.1429H1.76037C2.17345 6.13962 6.14181 2.16829 11.1454 1.75781ZM15.9585 6.92078L9.84464 9.36163C9.6237 9.44951 9.4487 9.62451 9.36082 9.84545L6.91998 15.9593C6.6388 16.6645 7.33807 17.3638 8.0433 17.0826L14.1538 14.6367C14.3738 14.5489 14.548 14.3746 14.6359 14.1546L17.0818 8.0441C17.2078 7.72832 17.1371 7.368 16.901 7.12332C16.5337 6.76769 16.141 6.85881 15.9585 6.92078ZM14.7213 9.27622L13.1644 13.1702L9.27042 14.7271L10.8273 10.8331L14.7213 9.27622Z" fill="#9DA8C3"/>
</g>
<defs>
<clipPath id="clip0_10_225">
<rect width="24" height="24" fill="white"/>
</clipPath>
</defs>
</svg>
