<svg width="24" height="24" viewBox="0 0 24 24" fill="none" xmlns="http://www.w3.org/2000/svg">
<path d="M7.83333 2H5.33333C3.49238 2 2 3.49238 2 5.33333V7.83333C2 9.67428 3.49238 11.1667 5.33333 11.1667H7.83333C9.67428 11.1667 11.1667 9.67428 11.1667 7.83333V5.33333C11.1667 3.49238 9.67428 2 7.83333 2Z" fill="none" stroke="#9DA8C3" stroke-width="2px" />
<path d="M18.6667 2H16.1667C14.3258 2 12.8334 3.49238 12.8334 5.33333V7.83333C12.8334 9.67428 14.3258 11.1667 16.1667 11.1667H18.6667C20.5077 11.1667 22 9.67428 22 7.83333V5.33333C22 3.49238 20.5077 2 18.6667 2Z" fill="none" stroke="#9DA8C3" stroke-width="2px"/>
<path d="M7.83333 12.8334H5.33333C3.49238 12.8334 2 14.3258 2 16.1667V18.6667C2 20.5077 3.49238 22 5.33333 22H7.83333C9.67428 22 11.1667 20.5077 11.1667 18.6667V16.1667C11.1667 14.3258 9.67428 12.8334 7.83333 12.8334Z" fill="none" stroke="#9DA8C3" stroke-width="2px"/>
<path d="M18.6667 12.8334H16.1667C14.3258 12.8334 12.8334 14.3258 12.8334 16.1667V18.6667C12.8334 20.5077 14.3258 22 16.1667 22H18.6667C20.5077 22 22 20.5077 22 18.6667V16.1667C22 14.3258 20.5077 12.8334 18.6667 12.8334Z" fill="none" stroke="#9DA8C3" stroke-width="2px"/>
</svg>
