<svg width="38" height="38" viewBox="0 0 38 38" fill="none" xmlns="http://www.w3.org/2000/svg">
<path d="M0 19C0 8.50659 8.50659 0 19 0C29.4934 0 38 8.50659 38 19C38 29.4934 29.4934 38 19 38C8.50659 38 0 29.4934 0 19Z" fill="url(#paint0_linear_403_3486)"/>
<g clip-path="url(#clip0_403_3486)">
<path d="M8.88233 19.0028L14.097 13.7881C14.2773 13.6078 14.2773 13.3155 14.097 13.1352C13.9167 12.955 13.6244 12.955 13.4441 13.1352L7.90295 18.6763C7.7227 18.8566 7.7227 19.149 7.90295 19.3293L13.4441 24.8704C13.6275 25.0476 13.9198 25.0425 14.097 24.859C14.2698 24.6801 14.2698 24.3964 14.097 24.2175L8.88233 19.0028Z" fill="white"/>
</g>
<g clip-path="url(#clip1_403_3486)">
<path d="M29.1177 19.0028L23.903 13.7881C23.7227 13.6078 23.7227 13.3155 23.903 13.1352C24.0833 12.955 24.3756 12.955 24.5559 13.1352L30.0971 18.6763C30.2773 18.8566 30.2773 19.149 30.0971 19.3293L24.5559 24.8704C24.3725 25.0476 24.0802 25.0425 23.903 24.859C23.7302 24.6801 23.7302 24.3964 23.903 24.2175L29.1177 19.0028Z" fill="white"/>
</g>
<defs>
<linearGradient id="paint0_linear_403_3486" x1="10.2395" y1="-3.30061e-08" x2="5.84531" y2="35.574" gradientUnits="userSpaceOnUse">
<stop stop-color="#9FE860"/>
<stop offset="1" stop-color="#50CE3B"/>
</linearGradient>
<clipPath id="clip0_403_3486">
<rect width="12" height="12" fill="white" transform="translate(5 13)"/>
</clipPath>
<clipPath id="clip1_403_3486">
<rect width="12" height="12" fill="white" transform="matrix(-1 0 0 1 33 13)"/>
</clipPath>
</defs>
</svg>
