<svg width="22" height="22" viewBox="0 0 22 22" fill="none" xmlns="http://www.w3.org/2000/svg">
<path d="M20 3.5H18.5V2C18.5 1.17275 17.8269 0.5 17 0.5H5C4.17313 0.5 3.5 1.17275 3.5 2V3.5H2C1.17313 3.5 0.5 4.17275 0.5 5V8.75C0.5 10.8176 2.18244 12.5 4.25 12.5H5.01425C6.24256 14.1296 8.11231 15.2487 10.25 15.4619V17H8C6.75931 17 5.75 18.0093 5.75 19.25V20.75C5.75 21.1642 6.08544 21.5 6.5 21.5H15.5C15.9146 21.5 16.25 21.1642 16.25 20.75V19.25C16.25 18.0093 15.2407 17 14 17H11.75V15.4619C13.8877 15.2487 15.7574 14.1296 16.9858 12.5H17.75C19.8176 12.5 21.5 10.8176 21.5 8.75V5C21.5 4.17275 20.8269 3.5 20 3.5ZM14.75 19.25V20H7.25V19.25C7.25 18.8366 7.58619 18.5 8 18.5H14C14.4138 18.5 14.75 18.8366 14.75 19.25ZM2 8.75V5H3.5V8C3.5 9.06181 3.72481 10.0711 4.12456 10.9872C2.94312 10.9207 2 9.94775 2 8.75ZM11 14C7.69156 14 5 11.3084 5 8V2H17V8C17 11.3084 14.3084 14 11 14ZM20 8.75C20 9.94775 19.0569 10.9207 17.8756 10.9872C18.2752 10.0711 18.5 9.06181 18.5 8V5H20V8.75Z" fill="#9DA8C3"/>
</svg>