<svg width="167" height="12" viewBox="0 0 167 12" fill="none" xmlns="http://www.w3.org/2000/svg">
<path d="M8.18939 3.05423C7.24437 1.57863 6.28561 0.361617 6.27605 0.349477L5.99998 0L5.72393 0.3495C5.71437 0.361617 4.75561 1.57863 3.81059 3.05426C2.51749 5.07328 1.86188 6.60204 1.86188 7.59806C1.86188 10.0253 3.71822 12 6 12C8.28178 12 10.1381 10.0253 10.1381 7.59806C10.1381 6.60204 9.48249 5.07328 8.18939 3.05423Z" fill="#4166F5"/>
<path d="M35.1894 3.05423C34.2444 1.57863 33.2856 0.361617 33.276 0.349477L33 0L32.7239 0.3495C32.7144 0.361617 31.7556 1.57863 30.8106 3.05426C29.5175 5.07328 28.8619 6.60204 28.8619 7.59806C28.8619 10.0253 30.7182 12 33 12C35.2818 12 37.1381 10.0253 37.1381 7.59806C37.1381 6.60204 36.4825 5.07328 35.1894 3.05423Z" fill="#4166F5"/>
<path d="M62.1894 3.05423C61.2444 1.57863 60.2856 0.361617 60.276 0.349477L60 0L59.7239 0.3495C59.7144 0.361617 58.7556 1.57863 57.8106 3.05426C56.5175 5.07328 55.8619 6.60204 55.8619 7.59806C55.8619 10.0253 57.7182 12 60 12C62.2818 12 64.1381 10.0253 64.1381 7.59806C64.1381 6.60204 63.4825 5.07328 62.1894 3.05423Z" fill="#4166F5"/>
<path d="M89.1894 3.05423C88.2444 1.57863 87.2856 0.361617 87.276 0.349477L87 0L86.7239 0.3495C86.7144 0.361617 85.7556 1.57863 84.8106 3.05426C83.5175 5.07328 82.8619 6.60204 82.8619 7.59806C82.8619 10.0253 84.7182 12 87 12C89.2818 12 91.1381 10.0253 91.1381 7.59806C91.1381 6.60204 90.4825 5.07328 89.1894 3.05423Z" fill="#4166F5"/>
<path d="M116.189 3.05423C115.244 1.57863 114.286 0.361617 114.276 0.349477L114 0L113.724 0.3495C113.714 0.361617 112.756 1.57863 111.811 3.05426C110.517 5.07328 109.862 6.60204 109.862 7.59806C109.862 10.0253 111.718 12 114 12C116.282 12 118.138 10.0253 118.138 7.59806C118.138 6.60204 117.482 5.07328 116.189 3.05423Z" fill="#4166F5"/>
<mask id="mask0_2_757" style="mask-type:alpha" maskUnits="userSpaceOnUse" x="109" y="0" width="10" height="12">
<path d="M116.189 3.05423C115.244 1.57863 114.286 0.361617 114.276 0.349477L114 0L113.724 0.3495C113.714 0.361617 112.756 1.57863 111.811 3.05426C110.517 5.07328 109.862 6.60204 109.862 7.59806C109.862 10.0253 111.718 12 114 12C116.282 12 118.138 10.0253 118.138 7.59806C118.138 6.60204 117.482 5.07328 116.189 3.05423Z" fill="#E0E6F3"/>
</mask>
<g mask="url(#mask0_2_757)">
<g filter="url(#filter0_d_2_757)">
<circle cx="110" cy="-1" r="9" fill="#E0E6F3"/>
</g>
</g>
<path d="M141.189 3.05423C140.244 1.57863 139.286 0.361617 139.276 0.349477L139 0L138.724 0.3495C138.714 0.361617 137.756 1.57863 136.811 3.05426C135.517 5.07328 134.862 6.60204 134.862 7.59806C134.862 10.0253 136.718 12 139 12C141.282 12 143.138 10.0253 143.138 7.59806C143.138 6.60204 142.482 5.07328 141.189 3.05423Z" fill="#E0E6F3"/>
<path d="M163.189 3.05423C162.244 1.57863 161.286 0.361617 161.276 0.349477L161 0L160.724 0.3495C160.714 0.361617 159.756 1.57863 158.811 3.05426C157.517 5.07328 156.862 6.60204 156.862 7.59806C156.862 10.0253 158.718 12 161 12C163.282 12 165.138 10.0253 165.138 7.59806C165.138 6.60204 164.482 5.07328 163.189 3.05423Z" fill="#E0E6F3"/>
<defs>
<filter id="filter0_d_2_757" x="97.0001" y="-10" width="26" height="26" filterUnits="userSpaceOnUse" color-interpolation-filters="sRGB">
<feFlood flood-opacity="0" result="BackgroundImageFix"/>
<feColorMatrix in="SourceAlpha" type="matrix" values="0 0 0 0 0 0 0 0 0 0 0 0 0 0 0 0 0 0 127 0" result="hardAlpha"/>
<feOffset dy="4"/>
<feGaussianBlur stdDeviation="2"/>
<feComposite in2="hardAlpha" operator="out"/>
<feColorMatrix type="matrix" values="0 0 0 0 0 0 0 0 0 0 0 0 0 0 0 0 0 0 0.25 0"/>
<feBlend mode="normal" in2="BackgroundImageFix" result="effect1_dropShadow_2_757"/>
<feBlend mode="normal" in="SourceGraphic" in2="effect1_dropShadow_2_757" result="shape"/>
</filter>
</defs>
</svg>
