<svg width="14" height="17" viewBox="0 0 14 17" fill="none" xmlns="http://www.w3.org/2000/svg">
<path d="M12.6 0.268224C12.1257 0.0441802 11.598 -0.0421119 11.077 0.0191799C10.556 0.0804718 10.0627 0.286883 9.65333 0.614891L2.85333 6.22822L2.66667 6.42822V1.33489C2.66667 0.981269 2.52619 0.64213 2.27614 0.392082C2.02609 0.142033 1.68696 0.00155728 1.33333 0.00155728C0.979711 0.00155728 0.640573 0.142033 0.390525 0.392082C0.140476 0.64213 0 0.981269 0 1.33489V14.6682C0 15.0218 0.140476 15.361 0.390525 15.611C0.640573 15.8611 0.979711 16.0016 1.33333 16.0016C1.68696 16.0016 2.02609 15.8611 2.27614 15.611C2.52619 15.361 2.66667 15.0218 2.66667 14.6682V9.57489L2.85333 9.77489L9.65333 15.3882C10.1435 15.7857 10.7556 16.0023 11.3867 16.0016C11.8054 15.9991 12.2188 15.9082 12.6 15.7349C13.0122 15.5532 13.3634 15.2567 13.6117 14.8807C13.86 14.5048 13.9948 14.0654 14 13.6149V2.38822C13.9948 1.93775 13.86 1.49831 13.6117 1.12238C13.3634 0.746455 13.0122 0.44993 12.6 0.268224Z" fill="#D4EBFB"/>
</svg>
