<svg width="14" height="17" viewBox="0 0 14 17" fill="none" xmlns="http://www.w3.org/2000/svg">
<path d="M1.4 15.7334C1.87432 15.9574 2.40204 16.0437 2.92302 15.9824C3.44401 15.9211 3.93729 15.7147 4.34667 15.3867L11.1467 9.77336L11.3333 9.57336V14.6667C11.3333 15.0203 11.4738 15.3595 11.7239 15.6095C11.9739 15.8596 12.313 16 12.6667 16C13.0203 16 13.3594 15.8596 13.6095 15.6095C13.8595 15.3595 14 15.0203 14 14.6667L14 1.33336C14 0.979739 13.8595 0.640599 13.6095 0.390551C13.3594 0.140502 13.0203 2.67029e-05 12.6667 2.67029e-05C12.313 2.67029e-05 11.9739 0.140502 11.7239 0.390551C11.4738 0.640599 11.3333 0.979739 11.3333 1.33336V6.42669L11.1467 6.2267L4.34667 0.613359C3.85651 0.215858 3.24441 -0.0007267 2.61333 2.67029e-05C2.19462 0.002491 1.78115 0.0933647 1.4 0.266695C0.987767 0.448401 0.636552 0.744924 0.388298 1.12085C0.140043 1.49678 0.0052433 1.93622 0 2.3867L0 13.6134C0.0052433 14.0638 0.140043 14.5033 0.388298 14.8792C0.636552 15.2551 0.987767 15.5517 1.4 15.7334Z" fill="#D4EAFB"/>
</svg>
