<svg width="33" height="9" viewBox="0 0 33 9" fill="none" xmlns="http://www.w3.org/2000/svg">
<path d="M6.52832 3.45898C6.52832 4.38346 6.2321 5.12402 5.63965 5.68066C5.05046 6.23405 4.26758 6.51074 3.29102 6.51074L3.23242 8H0.541992L0.400391 4.3623C0.358073 3.4248 0.291341 2.13737 0.200195 0.5C0.708008 0.399089 1.45182 0.348633 2.43164 0.348633C3.6263 0.348633 4.58333 0.587891 5.30273 1.06641C6.11979 1.61003 6.52832 2.40755 6.52832 3.45898ZM4.50195 4.2793C4.50195 3.77148 4.20085 3.51758 3.59863 3.51758C3.52702 3.51758 3.45378 3.52246 3.37891 3.53223L3.33008 5.24121C4.11133 5.21517 4.50195 4.89453 4.50195 4.2793ZM12.8223 8H10.1514L9.9707 7.35059C9.89583 7.37988 9.70866 7.47917 9.40918 7.64844C9.21712 7.77214 9.00391 7.93652 8.76953 8.1416L8.49121 7.55078C8.43587 7.43359 8.35612 7.26921 8.25195 7.05762L7.98828 8H6.57227C6.7806 7.19596 7.10286 5.86947 7.53906 4.02051C7.80599 2.78353 8.02897 1.61003 8.20801 0.5H11.1426C11.2337 1.01107 11.4827 2.20085 11.8896 4.06934C12.1143 5.0459 12.4251 6.35612 12.8223 8ZM9.74121 6.39844C9.68587 6.22591 9.58822 5.94596 9.44824 5.55859C9.36361 5.34375 9.23503 5.04753 9.0625 4.66992C8.98763 4.85872 8.87044 5.16797 8.71094 5.59766C8.62305 5.84505 8.51888 6.18197 8.39844 6.6084C8.49609 6.6084 8.71745 6.58887 9.0625 6.5498C9.27083 6.52051 9.49707 6.47005 9.74121 6.39844ZM19.0039 0.5C18.9583 1.15755 18.8949 2.30501 18.8135 3.94238C18.7646 5.14681 18.724 6.5319 18.6914 8.09766C18.265 7.76237 17.6156 7.2627 16.7432 6.59863C16.3656 6.33496 15.8024 5.93945 15.0537 5.41211L15.0049 8H13.4326C13.4066 7.33919 13.3464 6.09245 13.252 4.25977C13.1706 2.77539 13.0876 1.52214 13.0029 0.5H15.4541L17.2705 2.21875C17.2705 1.82487 17.264 1.51562 17.251 1.29102C17.2412 1.09245 17.2217 0.828776 17.1924 0.5H19.0039ZM26.0791 4.30859C26.0791 5.48372 25.7145 6.4082 24.9854 7.08203C24.2334 7.7819 23.1738 8.13184 21.8066 8.13184C20.9277 8.13184 20.249 8.08789 19.7705 8L19.6387 4.37207C19.5964 3.44108 19.5199 2.1569 19.4092 0.519531C20.1156 0.41862 20.8529 0.368164 21.6211 0.368164C22.9915 0.368164 24.0641 0.687174 24.8389 1.3252C25.6657 2.00879 26.0791 3.00326 26.0791 4.30859ZM24.0771 4.90918C24.0771 4.43066 23.9225 4.07747 23.6133 3.84961C23.3561 3.66081 23.0273 3.57454 22.627 3.59082L22.5586 6.65234C22.9753 6.6263 23.3154 6.49121 23.5791 6.24707C23.9111 5.94434 24.0771 5.49837 24.0771 4.90918ZM32.4219 8H29.751L29.5703 7.35059C29.4954 7.37988 29.3083 7.47917 29.0088 7.64844C28.8167 7.77214 28.6035 7.93652 28.3691 8.1416L28.0908 7.55078C28.0355 7.43359 27.9557 7.26921 27.8516 7.05762L27.5879 8H26.1719C26.3802 7.19596 26.7025 5.86947 27.1387 4.02051C27.4056 2.78353 27.6286 1.61003 27.8076 0.5H30.7422C30.8333 1.01107 31.0824 2.20085 31.4893 4.06934C31.7139 5.0459 32.0247 6.35612 32.4219 8ZM29.3408 6.39844C29.2855 6.22591 29.1878 5.94596 29.0479 5.55859C28.9632 5.34375 28.8346 5.04753 28.6621 4.66992C28.5872 4.85872 28.4701 5.16797 28.3105 5.59766C28.2227 5.84505 28.1185 6.18197 27.998 6.6084C28.0957 6.6084 28.3171 6.58887 28.6621 6.5498C28.8704 6.52051 29.0967 6.47005 29.3408 6.39844Z" fill="white"/>
</svg>
