<svg width="22" height="26" viewBox="0 0 22 26" fill="none" xmlns="http://www.w3.org/2000/svg">
<path d="M15.4607 0.777774C15.9796 0.776555 16.3899 1.17969 16.3911 1.71719L16.3923 2.6334C19.7591 2.89727 21.9831 5.19145 21.9867 8.70969L22 19.0079C22.0048 22.8437 19.595 25.2039 15.7322 25.21L6.29675 25.2222C2.45813 25.2271 0.0181172 22.8107 0.0132903 18.9639L8.10015e-06 8.78665C-0.00481071 5.24521 2.14076 2.95713 5.50755 2.64806L5.50634 1.73185C5.50514 1.19435 5.90336 0.789993 6.43432 0.789993C6.96529 0.788771 7.36351 1.1919 7.36471 1.72941L7.36592 2.58454L14.5339 2.57477L14.5327 1.71964C14.5315 1.18213 14.9297 0.778998 15.4607 0.777774ZM15.953 18.1234H15.941C15.3859 18.1369 14.9406 18.6023 14.9527 19.1642C14.9539 19.7262 15.4016 20.1892 15.9567 20.2014C16.5226 20.2002 16.9812 19.7347 16.98 19.1606C16.98 18.5864 16.5202 18.1234 15.953 18.1234ZM6.00955 18.1246C5.45445 18.1491 5.02003 18.6145 5.02123 19.1765C5.04658 19.7384 5.50514 20.1782 6.06024 20.1525C6.60447 20.1281 7.03769 19.6627 7.01235 19.1007C7.00028 18.551 6.55258 18.1234 6.00955 18.1246ZM10.9813 18.1185C10.4262 18.1442 9.99298 18.6084 9.99298 19.1703C10.0183 19.7323 10.4769 20.1708 11.032 20.1464C11.575 20.1208 12.0094 19.6565 11.9841 19.0934C11.972 18.5449 11.5243 18.1173 10.9813 18.1185ZM6.00352 13.7268C5.44842 13.7513 5.0152 14.2167 5.01641 14.7787C5.04054 15.3406 5.50031 15.7804 6.05541 15.7547C6.59844 15.7303 7.03166 15.2649 7.00631 14.7029C6.99425 14.1532 6.54776 13.7256 6.00352 13.7268ZM10.9765 13.6841C10.4214 13.7085 9.98695 14.174 9.98815 14.7359C10.0123 15.2978 10.4721 15.7364 11.0272 15.712C11.5702 15.6863 12.0034 15.2221 11.9793 14.6602C11.966 14.1104 11.5195 13.6829 10.9765 13.6841ZM15.9482 13.6902C15.3931 13.7024 14.9587 14.1544 14.9599 14.7164V14.7298C14.972 15.2917 15.4305 15.7181 15.9868 15.7059C16.5299 15.6924 16.9631 15.227 16.951 14.665C16.9257 14.1275 16.49 13.689 15.9482 13.6902ZM14.5363 4.45605L7.36833 4.46582L7.36954 5.4541C7.36954 5.98062 6.97253 6.39596 6.44156 6.39596C5.9106 6.39718 5.51117 5.98306 5.51117 5.45654L5.50996 4.5159C3.15683 4.75167 1.85477 6.13454 1.85838 8.78421L1.85959 9.16413L20.1295 9.1397V8.71214C20.0777 6.08567 18.7599 4.7077 16.3947 4.50247L16.3959 5.44311C16.3959 5.9684 15.9868 6.38497 15.4679 6.38497C14.937 6.38619 14.5375 5.97084 14.5375 5.44555L14.5363 4.45605Z" fill="#333333"/>
</svg>
