<svg width="30" height="30" viewBox="0 0 30 30" fill="none" xmlns="http://www.w3.org/2000/svg">
<circle cx="15" cy="15" r="15" fill="url(#paint0_linear_2_801)"/>
<path d="M20.4141 15.5859H9.58594C9.43054 15.5859 9.2815 15.5242 9.17162 15.4143C9.06173 15.3044 9 15.1554 9 15C9 14.8446 9.06173 14.6956 9.17162 14.5857C9.2815 14.4758 9.43054 14.4141 9.58594 14.4141H20.4141C20.5695 14.4141 20.7185 14.4758 20.8284 14.5857C20.9383 14.6956 21 14.8446 21 15C21 15.1554 20.9383 15.3044 20.8284 15.4143C20.7185 15.5242 20.5695 15.5859 20.4141 15.5859Z" fill="white"/>
<defs>
<linearGradient id="paint0_linear_2_801" x1="8.08383" y1="-2.60575e-08" x2="4.61472" y2="28.0848" gradientUnits="userSpaceOnUse">
<stop stop-color="#9FE860"/>
<stop offset="1" stop-color="#50CE3B"/>
</linearGradient>
</defs>
</svg>
