<svg width="35" height="44" viewBox="0 0 35 44" fill="none" xmlns="http://www.w3.org/2000/svg">
<path d="M7.20215 35.0527V39.75H8.58887C9.2985 39.75 9.79329 39.4001 10.0732 38.7002C10.2262 38.3161 10.3027 37.8587 10.3027 37.3281C10.3027 36.5957 10.1872 36.0342 9.95605 35.6436C9.72819 35.2497 9.27246 35.0527 8.58887 35.0527H7.20215ZM8.84277 33.8027C9.28874 33.8092 9.65983 33.8613 9.95605 33.959C10.4606 34.125 10.8691 34.4294 11.1816 34.8721C11.4323 35.2301 11.6032 35.6175 11.6943 36.0342C11.7855 36.4508 11.8311 36.848 11.8311 37.2256C11.8311 38.1826 11.639 38.9932 11.2549 39.6572C10.734 40.5524 9.93001 41 8.84277 41H5.74219V33.8027H8.84277ZM14.2871 35.043H12.876V33.7588H14.2871V35.043ZM12.876 35.6777H14.2871V41H12.876V35.6777ZM18.5742 38.4121C18.4863 38.4674 18.3968 38.513 18.3057 38.5488C18.2178 38.5814 18.0957 38.6123 17.9395 38.6416L17.627 38.7002C17.334 38.7523 17.124 38.8158 16.9971 38.8906C16.7822 39.0176 16.6748 39.2145 16.6748 39.4814C16.6748 39.7191 16.7399 39.8916 16.8701 39.999C17.0036 40.1032 17.1647 40.1553 17.3535 40.1553C17.653 40.1553 17.9281 40.0674 18.1787 39.8916C18.4326 39.7158 18.5645 39.3952 18.5742 38.9297V38.4121ZM17.7295 37.7627C17.9867 37.7301 18.1706 37.6895 18.2812 37.6406C18.4798 37.556 18.5791 37.4242 18.5791 37.2451C18.5791 37.027 18.5026 36.8773 18.3496 36.7959C18.1999 36.7113 17.9785 36.6689 17.6855 36.6689C17.3568 36.6689 17.124 36.7503 16.9873 36.9131C16.8896 37.0335 16.8245 37.1963 16.792 37.4014H15.4492C15.4785 36.9359 15.6087 36.5534 15.8398 36.2539C16.2077 35.7852 16.8392 35.5508 17.7344 35.5508C18.3171 35.5508 18.8346 35.6663 19.2871 35.8975C19.7396 36.1286 19.9658 36.5648 19.9658 37.2061V39.6475C19.9658 39.8167 19.9691 40.0218 19.9756 40.2627C19.9854 40.445 20.013 40.5687 20.0586 40.6338C20.1042 40.6989 20.1725 40.7526 20.2637 40.7949V41H18.75C18.7077 40.8926 18.6784 40.7917 18.6621 40.6973C18.6458 40.6029 18.6328 40.4954 18.623 40.375C18.431 40.5833 18.2096 40.7607 17.959 40.9072C17.6595 41.0798 17.321 41.166 16.9434 41.166C16.4616 41.166 16.0628 41.0293 15.7471 40.7559C15.4346 40.4792 15.2783 40.0885 15.2783 39.584C15.2783 38.9297 15.5306 38.4561 16.0352 38.1631C16.3118 38.0036 16.7188 37.8896 17.2559 37.8213L17.7295 37.7627ZM24.0967 35.5508C24.1227 35.5508 24.1439 35.5524 24.1602 35.5557C24.1797 35.5557 24.2204 35.5573 24.2822 35.5605V36.9863C24.1943 36.9766 24.1162 36.9701 24.0479 36.9668C23.9795 36.9635 23.9242 36.9619 23.8818 36.9619C23.3219 36.9619 22.946 37.1442 22.7539 37.5088C22.6465 37.7139 22.5928 38.0296 22.5928 38.4561V41H21.1914V35.6777H22.5195V36.6055C22.7344 36.2507 22.9215 36.0081 23.0811 35.8779C23.3415 35.6598 23.68 35.5508 24.0967 35.5508ZM25.3174 42.0205L25.4932 42.0303C25.6299 42.0368 25.7601 42.0319 25.8838 42.0156C26.0075 41.9993 26.1117 41.9619 26.1963 41.9033C26.2777 41.848 26.3525 41.7324 26.4209 41.5566C26.4925 41.3809 26.5218 41.2734 26.5088 41.2344L24.5557 35.6777H26.1035L27.2656 39.6035L28.3643 35.6777H29.8438L28.0176 40.9121C27.666 41.9212 27.3877 42.5462 27.1826 42.7871C26.9775 43.0312 26.5674 43.1533 25.9521 43.1533C25.8285 43.1533 25.7292 43.1517 25.6543 43.1484C25.5794 43.1484 25.4671 43.1436 25.3174 43.1338V42.0205Z" fill="#62E962"/>
<path d="M12.8333 2H10.3333C8.49238 2 7 3.49238 7 5.33333V7.83333C7 9.67428 8.49238 11.1667 10.3333 11.1667H12.8333C14.6743 11.1667 16.1667 9.67428 16.1667 7.83333V5.33333C16.1667 3.49238 14.6743 2 12.8333 2Z" fill="#2ED12E"/>
<path d="M23.6666 2H21.1666C19.3257 2 17.8333 3.49238 17.8333 5.33333V7.83333C17.8333 9.67428 19.3257 11.1667 21.1666 11.1667H23.6666C25.5076 11.1667 27 9.67428 27 7.83333V5.33333C27 3.49238 25.5076 2 23.6666 2Z" fill="#2ED12E"/>
<path d="M12.8333 12.8333H10.3333C8.49238 12.8333 7 14.3257 7 16.1666V18.6666C7 20.5076 8.49238 22 10.3333 22H12.8333C14.6743 22 16.1667 20.5076 16.1667 18.6666V16.1666C16.1667 14.3257 14.6743 12.8333 12.8333 12.8333Z" fill="#2ED12E"/>
<path d="M23.6666 12.8333H21.1666C19.3257 12.8333 17.8333 14.3257 17.8333 16.1666V18.6666C17.8333 20.5076 19.3257 22 21.1666 22H23.6666C25.5076 22 27 20.5076 27 18.6666V16.1666C27 14.3257 25.5076 12.8333 23.6666 12.8333Z" fill="#2ED12E"/>
</svg>
