<svg width="47" height="44" viewBox="0 0 47 44" fill="none" xmlns="http://www.w3.org/2000/svg">
<path d="M7.3916 33.8271H12.6211V34.7061H8.33887V36.8838H12.2988V37.7139H8.33887V40.1455H12.6943V41H7.3916V33.8271ZM13.3535 35.7705H14.4912L15.6924 37.6113L16.9082 35.7705L17.9775 35.7949L16.2148 38.3193L18.0557 41H16.9326L15.6338 39.0371L14.374 41H13.2607L15.1016 38.3193L13.3535 35.7705ZM21.0586 40.4092C21.4688 40.4092 21.8089 40.2383 22.0791 39.8965C22.3525 39.5514 22.4893 39.0371 22.4893 38.3535C22.4893 37.9368 22.429 37.5788 22.3086 37.2793C22.0807 36.7031 21.6641 36.415 21.0586 36.415C20.4499 36.415 20.0332 36.7194 19.8086 37.3281C19.6882 37.6536 19.6279 38.0671 19.6279 38.5684C19.6279 38.972 19.6882 39.3154 19.8086 39.5986C20.0365 40.139 20.4531 40.4092 21.0586 40.4092ZM18.7832 35.7949H19.6377V36.4883C19.8135 36.2507 20.0055 36.0667 20.2139 35.9365C20.5101 35.7412 20.8584 35.6436 21.2588 35.6436C21.8512 35.6436 22.3542 35.8714 22.7676 36.3271C23.181 36.7796 23.3877 37.4274 23.3877 38.2705C23.3877 39.4098 23.0898 40.2236 22.4941 40.7119C22.1165 41.0212 21.6771 41.1758 21.1758 41.1758C20.7819 41.1758 20.4515 41.0895 20.1846 40.917C20.0283 40.8193 19.8542 40.6517 19.6621 40.4141V43.085H18.7832V35.7949ZM24.4424 33.8271H25.3213V41H24.4424V33.8271ZM28.7197 40.4336C29.3024 40.4336 29.7012 40.2139 29.916 39.7744C30.1341 39.3317 30.2432 38.8402 30.2432 38.2998C30.2432 37.8115 30.165 37.4144 30.0088 37.1084C29.7614 36.6266 29.335 36.3857 28.7295 36.3857C28.1924 36.3857 27.8018 36.5908 27.5576 37.001C27.3135 37.4111 27.1914 37.9059 27.1914 38.4854C27.1914 39.042 27.3135 39.5059 27.5576 39.877C27.8018 40.248 28.1891 40.4336 28.7197 40.4336ZM28.7539 35.6191C29.4277 35.6191 29.9974 35.8438 30.4629 36.293C30.9284 36.7422 31.1611 37.403 31.1611 38.2754C31.1611 39.1185 30.9561 39.8151 30.5459 40.3652C30.1357 40.9154 29.4993 41.1904 28.6367 41.1904C27.9173 41.1904 27.346 40.9479 26.9229 40.4629C26.4997 39.9746 26.2881 39.3203 26.2881 38.5C26.2881 37.6211 26.5111 36.9212 26.957 36.4004C27.403 35.8796 28.002 35.6191 28.7539 35.6191ZM32.2354 35.7705H33.0703V36.6738C33.1387 36.498 33.3063 36.2848 33.5732 36.0342C33.8402 35.7803 34.1478 35.6533 34.4961 35.6533C34.5124 35.6533 34.54 35.6549 34.5791 35.6582C34.6182 35.6615 34.6849 35.668 34.7793 35.6777V36.6055C34.7272 36.5957 34.6784 36.5892 34.6328 36.5859C34.5905 36.5827 34.5433 36.5811 34.4912 36.5811C34.0485 36.5811 33.7083 36.7243 33.4707 37.0107C33.2331 37.2939 33.1143 37.6211 33.1143 37.9922V41H32.2354V35.7705ZM37.7188 35.6533C38.0898 35.6533 38.4495 35.7412 38.7979 35.917C39.1462 36.0895 39.4115 36.3141 39.5938 36.5908C39.7695 36.8545 39.8867 37.1621 39.9453 37.5137C39.9974 37.7546 40.0234 38.1387 40.0234 38.666H36.1904C36.2067 39.1966 36.332 39.623 36.5664 39.9453C36.8008 40.2643 37.1637 40.4238 37.6553 40.4238C38.1143 40.4238 38.4805 40.2725 38.7539 39.9697C38.9102 39.7939 39.0208 39.5905 39.0859 39.3594H39.9502C39.9274 39.5514 39.8509 39.7663 39.7207 40.0039C39.5938 40.2383 39.4505 40.4303 39.291 40.5801C39.0241 40.8405 38.6937 41.0163 38.2998 41.1074C38.0882 41.1595 37.849 41.1855 37.582 41.1855C36.931 41.1855 36.3792 40.9495 35.9268 40.4775C35.4743 40.0023 35.248 39.3382 35.248 38.4854C35.248 37.6455 35.4759 36.9635 35.9316 36.4395C36.3874 35.9154 36.9831 35.6533 37.7188 35.6533ZM39.1201 37.9678C39.0843 37.5869 39.0013 37.2826 38.8711 37.0547C38.6302 36.6315 38.2282 36.4199 37.665 36.4199C37.2614 36.4199 36.9229 36.5664 36.6494 36.8594C36.376 37.1491 36.2311 37.5186 36.2148 37.9678H39.1201Z" fill="#9DA8C3"/>
<g clip-path="url(#clip0_537_436)">
<path d="M22.9992 0C16.3811 8.58494e-06 11.0025 5.3861 11.0025 12.0033C11.0025 18.6206 16.3811 24 22.9992 24C29.6173 24 34.9975 18.6206 34.9975 12.0033C34.9975 5.38609 29.6173 -8.55252e-06 22.9992 0ZM22.1454 1.75781V2.57477C22.1462 3.0462 22.5277 3.42841 22.9992 3.43024C23.4732 3.43196 23.8587 3.04881 23.8596 2.57477V1.75781C28.8607 2.17125 32.8312 6.14182 33.2447 11.1429H32.426C31.9527 11.1446 31.5704 11.53 31.5723 12.0033C31.574 12.4741 31.9553 12.8553 32.426 12.8571H33.2447C32.8342 17.8608 28.8629 21.8291 23.8596 22.2422V21.4319C23.8614 20.9559 23.4752 20.5696 22.9992 20.5714C22.5258 20.5731 22.1435 20.9585 22.1454 21.4319V22.2422C17.1395 21.8321 13.1704 17.863 12.7603 12.8571H13.5706C14.044 12.8589 14.4292 12.4767 14.4311 12.0033C14.4328 11.5273 14.0466 11.141 13.5706 11.1429H12.7603C13.1734 6.13962 17.1418 2.16829 22.1454 1.75781ZM26.9584 6.92078L20.8446 9.36163C20.6236 9.44951 20.4486 9.62451 20.3608 9.84545L17.9199 15.9593C17.6387 16.6645 18.338 17.3638 19.0432 17.0826L25.1537 14.6367C25.3737 14.5489 25.548 14.3746 25.6359 14.1546L28.0817 8.0441C28.2078 7.72832 28.137 7.368 27.9009 7.12332C27.5337 6.76769 27.141 6.85881 26.9584 6.92078ZM25.7212 9.27622L24.1643 13.1702L20.2704 14.7271L21.8273 10.8331L25.7212 9.27622Z" fill="#9DA8C3"/>
</g>
<defs>
<clipPath id="clip0_537_436">
<rect width="24" height="24" fill="white" transform="translate(11)"/>
</clipPath>
</defs>
</svg>
