<svg width="9" height="16" viewBox="0 0 9 16" fill="none" xmlns="http://www.w3.org/2000/svg">
<path d="M1.99999 15C1.76634 15.0005 1.5399 14.9191 1.35999 14.77C1.25873 14.6861 1.17503 14.583 1.11368 14.4666C1.05233 14.3503 1.01453 14.223 1.00245 14.092C0.990378 13.961 1.00426 13.8289 1.0433 13.7033C1.08235 13.5777 1.14579 13.4611 1.22999 13.36L5.70999 8L1.38999 2.63C1.30692 2.52771 1.24489 2.41002 1.20746 2.28368C1.17003 2.15734 1.15794 2.02485 1.17187 1.89382C1.18581 1.76279 1.22551 1.63581 1.28868 1.52017C1.35186 1.40454 1.43726 1.30252 1.53999 1.22C1.64346 1.12897 1.76462 1.0603 1.89588 1.01831C2.02715 0.976319 2.16567 0.961916 2.30276 0.976001C2.43986 0.990085 2.57256 1.03236 2.69254 1.10016C2.81252 1.16796 2.9172 1.25983 2.99999 1.37L7.82999 7.37C7.97707 7.54893 8.05748 7.77338 8.05748 8.005C8.05748 8.23663 7.97707 8.46107 7.82999 8.64L2.82999 14.64C2.72967 14.761 2.60224 14.8567 2.45803 14.9192C2.31382 14.9818 2.1569 15.0095 1.99999 15Z" fill="black"/>
</svg>
