<svg width="45" height="45" viewBox="0 0 45 45" fill="none" xmlns="http://www.w3.org/2000/svg">
<path d="M22.3914 4.0329C33.0936 4.0329 41.7829 12.3906 41.7829 22.6842C41.7829 32.9779 33.0936 41.3355 22.3914 41.3355C11.6893 41.3355 3 32.9779 3 22.6842C3 12.3906 11.6893 4.0329 22.3914 4.0329Z" fill="#FFD426"/>
<path d="M22.3914 4.0329C33.0936 4.0329 41.7829 12.3906 41.7829 22.6842C41.7829 32.9779 33.0936 41.3355 22.3914 41.3355C11.6893 41.3355 3 32.9779 3 22.6842C3 12.3906 11.6893 4.0329 22.3914 4.0329Z" stroke="white" stroke-width="6"/>
<path d="M33.9605 15.8295C36.3878 15.322 38.787 16.8055 39.3147 19.1401C39.8424 21.4748 38.3 23.7824 35.8727 24.2899C33.4454 24.7975 31.0462 23.314 30.5186 20.9794C29.9909 18.6447 31.5332 16.3371 33.9605 15.8295Z" fill="#984DFF"/>
<path d="M19.8535 10.2688C27.7345 8.62095 35.3959 12.6063 37.0409 19.2854L37.091 19.4875L34.7741 19.972C33.5317 14.4753 27.1056 11.0863 20.3572 12.4973C13.6821 13.8931 9.31785 19.4472 10.4357 24.8919L10.4722 25.0534L8.15528 25.5379C6.61895 18.7406 11.8993 11.932 19.8535 10.2688Z" fill="#B06BFF"/>
<path d="M25.7068 18.7957C26.409 21.9024 29.5966 23.8733 32.8265 23.198C36.0565 22.5226 38.1056 19.4567 37.4035 16.35C36.7013 13.2434 33.5137 11.2724 30.2838 11.9478C27.0538 12.6232 25.0047 15.6891 25.7068 18.7957Z" fill="#303135"/>
<path d="M9.38906 28.634C7.87051 21.9154 15.0806 15.3237 21.0849 13.7732L21.6318 13.6589C27.5979 12.6977 34.8114 13.983 37.4253 21.2578C37.5725 21.6695 37.7575 22.0689 37.975 22.4529C41.7849 29.252 33.7985 33.2471 26.4328 34.9L26.4337 34.9041C26.3432 34.923 26.2528 34.9419 26.1614 34.9567C26.0676 34.9807 25.9772 34.9996 25.8868 35.0185L25.8858 35.0143C18.2681 36.4901 10.9179 35.3982 9.38906 28.634Z" fill="white"/>
<path d="M27.1708 22.7178C27.89 22.5674 28.337 22.7689 28.4259 23.1624C28.5149 23.556 28.0958 24.0166 27.4929 24.1427C26.89 24.2688 26.3056 24.0179 26.2167 23.6244C26.1277 23.2309 26.4473 22.8691 27.1708 22.7178Z" fill="#303135"/>
<path d="M35.0075 29.0471C36.9627 28.6383 38.4818 26.0606 37.7253 22.7137C36.923 19.1638 33.7912 16.6216 31.5413 17.1832C28.998 17.8234 28.8656 21.2087 29.3946 23.3494C30.257 26.826 32.4279 29.5865 35.0075 29.0471Z" fill="#303135"/>
<path d="M30.3431 22.9446C30.7092 24.5642 31.9931 25.6752 33.2118 25.4204C34.4349 25.1646 35.1234 23.6412 34.7573 22.0216C34.3903 20.3979 33.1064 19.2869 31.8833 19.5426C30.6646 19.7975 29.9761 21.3209 30.3431 22.9446Z" fill="white"/>
<path d="M32.272 20.5857C32.9773 20.4339 33.4748 20.8591 33.804 21.5971C33.963 21.9413 34.0759 22.3211 34.1858 22.8274L34.247 23.1182C34.2583 23.1679 34.2652 23.2185 34.2774 23.2724C34.3305 23.5476 34.139 23.8175 33.8529 23.8687C33.5625 23.9207 33.2827 23.7406 33.2286 23.4613L33.1755 23.1861L33.1202 22.9417L33.0654 22.719C32.9921 22.4349 32.9172 22.2033 32.8264 22.0011C32.6736 21.6643 32.5675 21.5737 32.5072 21.5863C32.3521 21.6188 32.2761 21.8212 32.3089 22.2655L32.3263 22.4223C32.3299 22.478 32.3387 22.5369 32.3475 22.5958L32.3829 22.7923L32.4345 23.0808L32.5317 23.5506C32.5849 23.8258 32.3933 24.0958 32.1072 24.1469C31.8168 24.199 31.5362 24.0147 31.483 23.7396L31.3476 23.0608L31.3304 22.9646C31.0929 21.6348 31.2489 20.8083 32.272 20.5857Z" fill="#303135"/>
<path d="M24.6187 24.558C25.3252 28.1626 23.9446 31.7525 20.2927 32.5161C17.5236 33.0951 14.1804 31.4733 13.4042 28.0395C12.5794 24.3902 15.3289 20.5315 18.5622 19.9508C22.2255 19.2976 24.1833 22.3326 24.6187 24.558Z" fill="#303135"/>
<path d="M22.7328 24.7385C23.1092 26.4036 22.075 28.034 20.4213 28.3798C18.7719 28.7247 17.1273 27.6544 16.751 25.9893C16.3737 24.32 17.4078 22.6896 19.0572 22.3447C20.711 21.9989 22.3555 23.0692 22.7328 24.7385Z" fill="white"/>
<path d="M19.2457 23.3082C20.4878 23.0571 21.148 23.7433 21.5553 25.0463L21.6004 25.206L21.6611 25.4146L21.8047 25.9702C21.8817 26.2708 21.6952 26.583 21.3784 26.658C21.0625 26.737 20.7421 26.5567 20.6599 26.2529L20.4895 25.5988L20.4534 25.4589C20.1989 24.5925 19.9531 24.3229 19.488 24.4201C19.2502 24.4655 19.1509 24.6251 19.1328 25.0236C19.1217 25.3339 19.1693 25.684 19.2803 26.1553L19.3455 26.4237C19.3558 26.4692 19.3713 26.518 19.3825 26.5677C19.4647 26.8716 19.273 27.1806 18.9614 27.2588C18.6456 27.3378 18.3243 27.1534 18.2421 26.8496L18.2022 26.6931L18.128 26.4049C17.9964 25.8425 17.9344 25.4087 17.9546 24.9793C17.9889 24.1132 18.4006 23.4806 19.2457 23.3082Z" fill="#303135"/>
<path d="M17.1682 13.1568C16.7767 13.1249 16.4175 13.0113 16.1003 12.8308L16.8248 11.5205C16.9639 11.6013 17.1254 11.6527 17.2968 11.6653C17.9322 11.718 18.4981 11.2303 18.5558 10.587C18.6079 9.94108 18.1344 9.37272 17.4949 9.32132C16.9278 9.27817 16.4179 9.65877 16.2741 10.1999L14.8468 9.82727C15.1711 8.59494 16.3304 7.7269 17.6235 7.82974C19.0739 7.94508 20.1529 9.23632 20.0258 10.7051C19.8986 12.1739 18.6187 13.2722 17.1682 13.1568Z" fill="#FF5A2E"/>
<path d="M16.5661 7.95119C16.9344 7.83426 17.3136 7.80316 17.6828 7.85112L17.5445 9.32793C17.3801 9.3087 17.2128 9.32163 17.0538 9.37212C16.4428 9.56611 16.1216 10.2261 16.3316 10.8379C16.5429 11.4538 17.2094 11.8002 17.8205 11.6062C18.3603 11.4348 18.6756 10.8928 18.5867 10.3362L20.052 10.1433C20.1956 11.0351 19.8794 11.9122 19.2463 12.4882L19.9366 13.7261L19.8641 14.0058L19.5791 14.2641L19.1748 14.2773L18.8229 14.1323L18.2188 13.051L18.2146 13.0523C16.8589 13.4292 15.3993 12.6516 14.9296 11.283C14.4502 9.88623 15.1809 8.39098 16.5661 7.95119Z" fill="#FF5A2E"/>
<path d="M17.4673 15.2177C17.5008 15.3061 21.947 13.6867 21.9021 13.5876C21.7323 13.2153 20.6287 13.1815 19.4052 13.6152C18.1784 14.0539 17.3147 14.8418 17.4673 15.2177Z" fill="#303135"/>
<path d="M25.7066 27.3773C25.9535 27.7494 26.9464 27.8213 28.0597 27.5885C29.1688 27.3566 30.0028 26.8613 29.9173 26.4831C29.8315 26.1036 29.121 25.9965 27.8018 26.2723C26.1592 26.6158 25.4788 27.0313 25.7066 27.3773Z" fill="#303135"/>
<path d="M27.4843 27.1838C28.3413 27.0046 29.1041 26.973 29.45 27.0824C29.1326 27.2742 28.6794 27.4491 28.1564 27.5685L28.0598 27.5887L27.9716 27.6072C27.2048 27.7575 26.506 27.7607 26.0781 27.6195C26.4289 27.4584 26.9256 27.3007 27.4843 27.1838Z" fill="#FF4433"/>
<path d="M6.25276 22.9989C5.67661 20.0308 7.63047 17.1019 10.6761 16.3696C12.1947 16.0044 13.7443 16.2356 15.0117 16.8946C15.017 16.8978 15.0213 16.8969 15.0265 16.9001C15.4652 17.4244 15.9199 18.0191 13.8113 21.8999C11.3806 26.3904 9.76187 27.0109 9.19228 26.9651C7.81662 26.1466 6.57033 24.6633 6.25276 22.9989Z" fill="#303135"/>
<path d="M13.0996 13.3312C13.6106 12.9381 14.3545 13.0168 14.7632 13.5083C15.172 13.9997 15.0901 14.7153 14.5792 15.1084C11.2455 17.6795 9.65903 21.4555 10.4726 25.0551C10.6112 25.6681 10.2034 26.2783 9.56598 26.4115C8.9243 26.5457 8.29423 26.1526 8.15567 25.5395C7.14175 21.0535 9.08942 16.4211 13.0996 13.3312Z" fill="#B06BFF"/>
<path d="M9.03122 22.4413C11.5863 21.9071 14.1118 23.4686 14.6672 25.9262C15.2227 28.3837 13.5991 30.8128 11.0441 31.347C8.48905 31.8813 5.96356 30.3197 5.40811 27.8622C4.85266 25.4047 6.47617 22.9756 9.03122 22.4413Z" fill="#984DFF"/>
<path d="M7.81368 24.5612C8.96345 24.3208 10.1676 25.3228 10.5008 26.7973C10.8341 28.2718 10.1712 29.6642 9.0214 29.9046C7.87163 30.1451 6.66751 29.1431 6.33424 27.6685C6.00097 26.194 6.6639 24.8016 7.81368 24.5612Z" fill="#D98CFF"/>
<path d="M26.5151 10.5824C26.445 10.4255 26.5852 10.2569 26.7597 10.2878L27.6707 10.4492C27.7439 10.4621 27.8054 10.5093 27.8348 10.5751L27.9964 10.9378C28.0665 11.0946 27.9264 11.2633 27.7519 11.2323L27.2026 11.135L27.8599 12.6088C27.8623 12.6138 27.8644 12.6189 27.8666 12.624L27.8941 12.6854L27.8892 12.6877C27.9644 12.9537 27.8381 13.2873 27.5538 13.5099C27.1999 13.7871 26.7353 13.7873 26.516 13.5108C26.2967 13.2343 26.4057 12.7856 26.7596 12.5084C26.9219 12.3812 27.1074 12.3124 27.282 12.3016L26.5151 10.5824Z" fill="#FF9D33"/>
<path d="M34.8788 7.25265C34.9472 6.94073 35.3497 6.82815 35.5816 7.05586L36.7922 8.2444C36.8894 8.33987 36.9306 8.47544 36.9018 8.60625L36.7433 9.32718C36.6749 9.63909 36.2724 9.75168 36.0405 9.52397L35.3108 8.80728L34.6668 11.7374C34.6649 11.7473 34.6625 11.7573 34.6601 11.7673L34.6333 11.8896L34.6233 11.8879C34.4408 12.3718 33.8751 12.7507 33.1921 12.7965C32.3419 12.8537 31.6323 12.3736 31.6066 11.7246C31.581 11.0756 32.249 10.5032 33.0991 10.446C33.4891 10.4197 33.8493 10.5065 34.1278 10.6706L34.8788 7.25265Z" fill="#FF9D33"/>
</svg>
