<svg width="8" height="16" viewBox="0 0 8 16" fill="none" xmlns="http://www.w3.org/2000/svg">
<path d="M1.00176 15C0.768108 15.0005 0.541672 14.9191 0.36176 14.77C0.260501 14.6861 0.1768 14.583 0.115448 14.4666C0.0540956 14.3503 0.0162993 14.223 0.00422342 14.092C-0.00785244 13.961 0.00602958 13.8289 0.0450741 13.7033C0.0841185 13.5777 0.147558 13.4611 0.23176 13.36L4.71176 8L0.39176 2.63C0.308694 2.52771 0.246663 2.41002 0.209231 2.28368C0.171799 2.15734 0.159705 2.02485 0.173645 1.89382C0.187584 1.76279 0.227281 1.63581 0.290454 1.52017C0.353628 1.40454 0.439033 1.30252 0.54176 1.22C0.645226 1.12897 0.766392 1.0603 0.897654 1.01831C1.02892 0.976319 1.16744 0.961916 1.30453 0.976001C1.44163 0.990085 1.57433 1.03236 1.69431 1.10016C1.81429 1.16796 1.91897 1.25983 2.00176 1.37L6.83176 7.37C6.97884 7.54893 7.05925 7.77338 7.05925 8.005C7.05925 8.23663 6.97884 8.46107 6.83176 8.64L1.83176 14.64C1.73144 14.761 1.60401 14.8567 1.4598 14.9192C1.31559 14.9818 1.15867 15.0095 1.00176 15Z" fill="white"/>
</svg>
