<svg width="12" height="12" viewBox="0 0 12 12" fill="none" xmlns="http://www.w3.org/2000/svg">
<g clip-path="url(#clip0_2_831)">
<path d="M8.65228 4.09616C8.83539 4.27926 8.83539 4.57608 8.65228 4.75909L5.50763 7.90384C5.32452 8.08685 5.0278 8.08685 4.8447 7.90384L3.34772 6.40677C3.16461 6.22375 3.16461 5.92694 3.34772 5.74393C3.53073 5.56082 3.82755 5.56082 4.01056 5.74393L5.17612 6.90948L7.98935 4.09616C8.17245 3.91315 8.46927 3.91315 8.65228 4.09616ZM12 6C12 9.3165 9.31604 12 6 12C2.6835 12 0 9.31604 0 6C0 2.6835 2.68396 -1.90735e-06 6 -1.90735e-06C9.3165 -1.90735e-06 12 2.68396 12 6ZM11.0625 6C11.0625 3.20169 8.79794 0.937498 6 0.937498C3.20169 0.937498 0.9375 3.20205 0.9375 6C0.9375 8.79831 3.20206 11.0625 6 11.0625C8.79831 11.0625 11.0625 8.79794 11.0625 6Z" fill="#2ED12E"/>
</g>
<defs>
<clipPath id="clip0_2_831">
<rect width="12" height="12" fill="white"/>
</clipPath>
</defs>
</svg>
