<svg width="158" height="158" viewBox="0 0 158 158" fill="none" xmlns="http://www.w3.org/2000/svg">
<mask id="path-1-inside-1_403_3476" fill="white">
<path d="M147.295 49.54C149.639 48.5291 152.372 49.6055 153.244 52.0042C156.492 60.9364 158.106 70.3938 157.995 79.9227C157.865 90.9942 155.41 101.915 150.788 111.976C146.167 122.038 139.481 131.015 131.166 138.327C122.851 145.638 113.092 151.12 102.522 154.417C91.9524 157.714 80.8074 158.752 69.8103 157.464C58.8132 156.176 48.2097 152.59 38.6875 146.94C29.1653 141.29 20.9371 133.702 14.5367 124.667C9.02799 116.891 4.97908 108.193 2.57314 98.9984C1.92702 96.5291 3.56355 94.0898 6.06635 93.5892C8.56915 93.0885 10.9887 94.7169 11.654 97.1811C13.7937 105.107 17.3192 112.605 22.0789 119.324C27.7305 127.302 34.996 134.002 43.4041 138.991C51.8122 143.98 61.1751 147.146 70.8855 148.283C80.5959 149.421 90.4369 148.504 99.7703 145.593C109.104 142.682 117.721 137.842 125.063 131.386C132.405 124.93 138.308 117.002 142.389 108.118C146.47 99.2338 148.638 89.5909 148.752 79.8148C148.848 71.5815 147.486 63.4086 144.741 55.6716C143.887 53.2662 144.952 50.551 147.295 49.54Z"/>
</mask>
<path d="M147.295 49.54C149.639 48.5291 152.372 49.6055 153.244 52.0042C156.492 60.9364 158.106 70.3938 157.995 79.9227C157.865 90.9942 155.41 101.915 150.788 111.976C146.167 122.038 139.481 131.015 131.166 138.327C122.851 145.638 113.092 151.12 102.522 154.417C91.9524 157.714 80.8074 158.752 69.8103 157.464C58.8132 156.176 48.2097 152.59 38.6875 146.94C29.1653 141.29 20.9371 133.702 14.5367 124.667C9.02799 116.891 4.97908 108.193 2.57314 98.9984C1.92702 96.5291 3.56355 94.0898 6.06635 93.5892C8.56915 93.0885 10.9887 94.7169 11.654 97.1811C13.7937 105.107 17.3192 112.605 22.0789 119.324C27.7305 127.302 34.996 134.002 43.4041 138.991C51.8122 143.98 61.1751 147.146 70.8855 148.283C80.5959 149.421 90.4369 148.504 99.7703 145.593C109.104 142.682 117.721 137.842 125.063 131.386C132.405 124.93 138.308 117.002 142.389 108.118C146.47 99.2338 148.638 89.5909 148.752 79.8148C148.848 71.5815 147.486 63.4086 144.741 55.6716C143.887 53.2662 144.952 50.551 147.295 49.54Z" stroke="#F2F5FC" stroke-width="18.3721" mask="url(#path-1-inside-1_403_3476)"/>
<path d="M68.9301 5.23457C68.5901 2.74455 66.292 0.988304 63.8256 1.47093C44.8596 5.18226 27.8512 15.7358 16.0962 31.2077C4.34115 46.6795 -1.26745 65.8943 0.240491 85.1611C0.436583 87.6665 2.74455 89.4099 5.23457 89.0699V89.0699C7.72459 88.73 9.45194 86.4354 9.27465 83.9285C8.0814 67.0568 13.0482 50.2629 23.3427 36.7133C33.6372 23.1638 48.4854 13.8774 65.0596 10.5049C67.5223 10.0038 69.27 7.72459 68.9301 5.23457V5.23457Z" fill="url(#paint0_linear_403_3476)"/>
<path d="M145.4 45.4847C147.678 44.3347 148.605 41.5476 147.324 39.3405C140.518 27.6161 130.795 17.8161 119.067 10.9144C107.339 4.01264 94.0501 0.270779 80.4962 0.0141408C77.9447 -0.0341708 75.958 2.12894 76.0589 4.6789C76.1598 7.22887 78.3105 9.19819 80.8616 9.26628C92.6426 9.58069 104.179 12.8765 114.38 18.8791C124.58 24.8816 133.063 33.3671 139.058 43.5135C140.356 45.7106 143.122 46.6346 145.4 45.4847Z" fill="url(#paint1_linear_403_3476)"/>
<defs>
<linearGradient id="paint0_linear_403_3476" x1="79" y1="4.35114e-06" x2="6" y2="88" gradientUnits="userSpaceOnUse">
<stop stop-color="#FFA935"/>
<stop offset="1" stop-color="#FDD00E"/>
</linearGradient>
<linearGradient id="paint1_linear_403_3476" x1="143" y1="33" x2="79" y2="3.01003e-06" gradientUnits="userSpaceOnUse">
<stop stop-color="#2ED12E"/>
<stop offset="1" stop-color="#53D290"/>
</linearGradient>
</defs>
</svg>
