<svg width="24" height="24" viewBox="0 0 24 24" fill="none" xmlns="http://www.w3.org/2000/svg">
<g clip-path="url(#clip0_750_449)">
<path d="M23.5324 7.34216C23.813 7.24241 24.0003 6.97668 24 6.67883C23.9996 6.38099 23.8116 6.11572 23.5308 6.01663L12.2339 2.0308C12.0826 1.97736 11.9174 1.97736 11.7661 2.0308L0.469219 6.01663C0.188344 6.11568 0.000375562 6.38099 5.61892e-07 6.67883C-0.000374438 6.97668 0.186985 7.24241 0.467625 7.34216L4.94273 8.9331V13.5197C4.94273 14.2767 5.73244 14.9168 7.2899 15.4223C8.64745 15.863 10.3202 16.1056 12 16.1056C13.6799 16.1056 15.3526 15.863 16.7102 15.4223C18.2676 14.9168 19.0574 14.2767 19.0574 13.5197V8.9331L20.905 8.27624V14.6317C20.0833 14.9223 19.4929 15.7064 19.4929 16.6264C19.4929 17.5462 20.0833 18.3305 20.905 18.621V21.3062C20.905 21.6945 21.2198 22.0094 21.6081 22.0094C21.9965 22.0094 22.3113 21.6945 22.3113 21.3062V18.621C23.1329 18.3305 23.7234 17.5463 23.7234 16.6264C23.7234 15.7065 23.1329 14.9223 22.3113 14.6317V7.77627L23.5324 7.34216ZM21.6081 17.3353C21.2172 17.3353 20.8991 17.0173 20.8991 16.6263C20.8991 16.2354 21.2172 15.9173 21.6081 15.9173C21.999 15.9173 22.3171 16.2354 22.3171 16.6263C22.3171 17.0173 21.999 17.3353 21.6081 17.3353ZM12 3.43944L21.1907 6.68221L12 9.94954L2.80926 6.68216L12 3.43944ZM17.6511 13.4137C17.5163 13.5495 17.0339 13.8749 15.945 14.1855C14.7834 14.5169 13.3823 14.6994 12 14.6994C10.6177 14.6994 9.21665 14.5169 8.055 14.1855C6.96614 13.8749 6.4837 13.5496 6.34894 13.4137V9.43302L11.7644 11.3583C11.8406 11.3854 11.9203 11.3989 11.9999 11.3989C12.0796 11.3989 12.1593 11.3854 12.2354 11.3583L17.651 9.43302V13.4137H17.6511Z" fill="#9DA8C3"/>
</g>
<defs>
<clipPath id="clip0_750_449">
<rect width="24" height="24" fill="white"/>
</clipPath>
</defs>
</svg>
