<svg width="12" height="12" viewBox="0 0 12 12" fill="none" xmlns="http://www.w3.org/2000/svg">
<path d="M8.18939 3.05423C7.24437 1.57863 6.28561 0.361617 6.27605 0.349477L5.99998 0L5.72393 0.3495C5.71437 0.361617 4.75561 1.57863 3.81059 3.05426C2.51749 5.07328 1.86188 6.60204 1.86188 7.59806C1.86188 10.0253 3.71822 12 6 12C8.28178 12 10.1381 10.0253 10.1381 7.59806C10.1381 6.60204 9.48249 5.07328 8.18939 3.05423Z" fill="#0060F5"/>
<mask id="mask0_2_774" style="mask-type:alpha" maskUnits="userSpaceOnUse" x="1" y="0" width="10" height="12">
<path d="M8.18939 3.05423C7.24437 1.57863 6.28561 0.361617 6.27605 0.349477L5.99998 0L5.72393 0.3495C5.71437 0.361617 4.75561 1.57863 3.81059 3.05426C2.51749 5.07328 1.86188 6.60204 1.86188 7.59806C1.86188 10.0253 3.71822 12 6 12C8.28178 12 10.1381 10.0253 10.1381 7.59806C10.1381 6.60204 9.48249 5.07328 8.18939 3.05423Z" fill="#E0E6F3"/>
</mask>
<g mask="url(#mask0_2_774)">
<g filter="url(#filter0_d_2_774)">
<circle cx="2.00006" cy="-1" r="9" fill="#E0E6F3"/>
</g>
</g>
<defs>
<filter id="filter0_d_2_774" x="-10.9999" y="-10" width="26" height="26" filterUnits="userSpaceOnUse" color-interpolation-filters="sRGB">
<feFlood flood-opacity="0" result="BackgroundImageFix"/>
<feColorMatrix in="SourceAlpha" type="matrix" values="0 0 0 0 0 0 0 0 0 0 0 0 0 0 0 0 0 0 127 0" result="hardAlpha"/>
<feOffset dy="4"/>
<feGaussianBlur stdDeviation="2"/>
<feComposite in2="hardAlpha" operator="out"/>
<feColorMatrix type="matrix" values="0 0 0 0 0 0 0 0 0 0 0 0 0 0 0 0 0 0 0.25 0"/>
<feBlend mode="normal" in2="BackgroundImageFix" result="effect1_dropShadow_2_774"/>
<feBlend mode="normal" in="SourceGraphic" in2="effect1_dropShadow_2_774" result="shape"/>
</filter>
</defs>
</svg>
