<svg width="156" height="109" viewBox="0 0 156 109" fill="none" xmlns="http://www.w3.org/2000/svg">
<mask id="path-1-inside-1_403_3477" fill="white">
<path d="M145.295 0.540012C147.639 -0.47094 150.372 0.605511 151.244 3.00425C154.492 11.9364 156.106 21.3938 155.995 30.9227C155.865 41.9942 153.41 52.9149 148.788 62.9764C144.167 73.0378 137.481 82.0154 129.166 89.3268C120.851 96.6382 111.092 102.12 100.522 105.417C89.9524 108.714 78.8074 109.752 67.8103 108.464C56.8132 107.176 46.2097 103.59 36.6875 97.9404C27.1653 92.2904 18.9371 84.7019 12.5367 75.6671C7.02799 67.891 2.97908 59.1931 0.573137 49.9984C-0.0729809 47.5291 1.56355 45.0898 4.06635 44.5892C6.56915 44.0885 8.98873 45.7169 9.65397 48.1811C11.7937 56.1071 15.3192 63.6052 20.0789 70.324C25.7305 78.3018 32.996 85.0025 41.4041 89.9914C49.8122 94.9803 59.1751 98.1461 68.8855 99.2834C78.5959 100.421 88.4369 99.5041 97.7703 96.5931C107.104 93.682 115.721 88.8415 123.063 82.3856C130.405 75.9296 136.308 68.0024 140.389 59.1181C144.47 50.2338 146.638 40.5909 146.752 30.8148C146.848 22.5815 145.486 14.4086 142.741 6.67159C141.887 4.26616 142.952 1.55097 145.295 0.540012Z"/>
</mask>
<path d="M145.295 0.540012C147.639 -0.47094 150.372 0.605511 151.244 3.00425C154.492 11.9364 156.106 21.3938 155.995 30.9227C155.865 41.9942 153.41 52.9149 148.788 62.9764C144.167 73.0378 137.481 82.0154 129.166 89.3268C120.851 96.6382 111.092 102.12 100.522 105.417C89.9524 108.714 78.8074 109.752 67.8103 108.464C56.8132 107.176 46.2097 103.59 36.6875 97.9404C27.1653 92.2904 18.9371 84.7019 12.5367 75.6671C7.02799 67.891 2.97908 59.1931 0.573137 49.9984C-0.0729809 47.5291 1.56355 45.0898 4.06635 44.5892C6.56915 44.0885 8.98873 45.7169 9.65397 48.1811C11.7937 56.1071 15.3192 63.6052 20.0789 70.324C25.7305 78.3018 32.996 85.0025 41.4041 89.9914C49.8122 94.9803 59.1751 98.1461 68.8855 99.2834C78.5959 100.421 88.4369 99.5041 97.7703 96.5931C107.104 93.682 115.721 88.8415 123.063 82.3856C130.405 75.9296 136.308 68.0024 140.389 59.1181C144.47 50.2338 146.638 40.5909 146.752 30.8148C146.848 22.5815 145.486 14.4086 142.741 6.67159C141.887 4.26616 142.952 1.55097 145.295 0.540012Z" stroke="#F2F5FC" stroke-width="18.3721" mask="url(#path-1-inside-1_403_3477)"/>
</svg>
