<svg width="12" height="12" viewBox="0 0 12 12" fill="none" xmlns="http://www.w3.org/2000/svg">
<g clip-path="url(#clip0_2_834)">
<mask id="path-1-inside-1_2_834" fill="white">
<path d="M6.00278 3.88236L0.788109 9.09702C0.607806 9.2773 0.31549 9.2773 0.135187 9.09702C-0.0450625 8.91669 -0.0450625 8.6244 0.135187 8.4441L5.67632 2.90297C5.85662 2.72273 6.14894 2.72273 6.32924 2.90297L11.8704 8.4441C12.0475 8.62754 12.0424 8.91986 11.859 9.09702C11.6801 9.26983 11.3964 9.26983 11.2174 9.09702L6.00278 3.88236Z"/>
</mask>
<path d="M6.00278 3.88236L0.788109 9.09702C0.607806 9.2773 0.31549 9.2773 0.135187 9.09702C-0.0450625 8.91669 -0.0450625 8.6244 0.135187 8.4441L5.67632 2.90297C5.85662 2.72273 6.14894 2.72273 6.32924 2.90297L11.8704 8.4441C12.0475 8.62754 12.0424 8.91986 11.859 9.09702C11.6801 9.26983 11.3964 9.26983 11.2174 9.09702L6.00278 3.88236Z" fill="#9EA9C3"/>
<path d="M6.00278 3.88236L5.29567 3.17525L6.00278 2.46815L6.70989 3.17525L6.00278 3.88236ZM0.788109 9.09702L1.49522 9.80413L1.49516 9.80418L0.788109 9.09702ZM0.135187 9.09702L-0.571867 9.80418L-0.572079 9.80397L0.135187 9.09702ZM0.135187 8.4441L-0.572026 7.7371L-0.57192 7.73699L0.135187 8.4441ZM5.67632 2.90297L4.96921 2.19587L4.96932 2.19576L5.67632 2.90297ZM6.32924 2.90297L7.03624 2.19576L7.03635 2.19587L6.32924 2.90297ZM11.8704 8.4441L12.5775 7.73699L12.5836 7.74315L12.5897 7.74941L11.8704 8.4441ZM11.859 9.09702L12.5537 9.81633L12.5537 9.81637L11.859 9.09702ZM11.2174 9.09702L10.5227 9.81631L10.5165 9.81028L10.5103 9.80413L11.2174 9.09702ZM6.70989 4.58947L1.49522 9.80413L0.0810029 8.38991L5.29567 3.17525L6.70989 4.58947ZM1.49516 9.80418C0.924347 10.3749 -0.0010516 10.3749 -0.571867 9.80418L0.84224 8.38986C0.632031 8.17968 0.291265 8.17968 0.0810559 8.38986L1.49516 9.80418ZM-0.572079 9.80397C-1.14261 9.23318 -1.14269 8.30793 -0.572026 7.7371L0.842399 9.1511C1.05256 8.94087 1.05249 8.6002 0.842452 8.39007L-0.572079 9.80397ZM-0.57192 7.73699L4.96921 2.19587L6.38342 3.61008L0.842293 9.15121L-0.57192 7.73699ZM4.96932 2.19576C5.54012 1.62513 6.46544 1.62513 7.03624 2.19576L5.62224 3.61019C5.83244 3.82032 6.17312 3.82032 6.38332 3.61019L4.96932 2.19576ZM7.03635 2.19587L12.5775 7.73699L11.1633 9.15121L5.62213 3.61008L7.03635 2.19587ZM12.5897 7.74941C13.1505 8.33011 13.1344 9.25549 12.5537 9.81633L11.1643 8.37772C10.9505 8.58422 10.9446 8.92498 11.1511 9.13879L12.5897 7.74941ZM12.5537 9.81637C11.9872 10.3634 11.0892 10.3634 10.5227 9.81631L11.9122 8.37773C11.7035 8.17623 11.3729 8.17631 11.1644 8.37768L12.5537 9.81637ZM10.5103 9.80413L5.29567 4.58947L6.70989 3.17525L11.9246 8.38992L10.5103 9.80413Z" fill="#9DA8C3" mask="url(#path-1-inside-1_2_834)"/>
</g>
<defs>
<clipPath id="clip0_2_834">
<rect width="12" height="12" fill="white" transform="matrix(-4.37114e-08 1 1 4.37114e-08 0 -1.90735e-06)"/>
</clipPath>
</defs>
</svg>
