<svg width="34" height="34" viewBox="0 0 34 34" fill="none" xmlns="http://www.w3.org/2000/svg">
<path d="M0 11C0 4.92487 4.92487 0 11 0H23C29.0751 0 34 4.92487 34 11V23C34 29.0751 29.0751 34 23 34H11C4.92487 34 0 29.0751 0 23V11Z" fill="#E0E6F3"/>
<g clip-path="url(#clip0_2_877)">
<path d="M24.5019 10.9468L23.0521 9.49684C22.3896 8.83438 21.3118 8.83441 20.6493 9.49684L20.0818 10.0644L23.9345 13.9173L24.5019 13.3498C25.1659 12.6857 25.166 11.6109 24.5019 10.9468Z" fill="#9DA8C3"/>
<path d="M9.68787 20.7733L9.00784 24.4458C8.97975 24.5976 9.02812 24.7535 9.13728 24.8627C9.24656 24.972 9.4025 25.0203 9.55409 24.9922L13.2263 24.3121L9.68787 20.7733Z" fill="#9DA8C3"/>
<path d="M19.4189 10.7273L10.1937 19.9533L14.0463 23.8062L23.2715 14.5802L19.4189 10.7273Z" fill="#9DA8C3"/>
</g>
<defs>
<clipPath id="clip0_2_877">
<rect width="16" height="16" fill="white" transform="translate(9 9)"/>
</clipPath>
</defs>
</svg>
