<svg width="24" height="24" viewBox="0 0 24 24" fill="none" xmlns="http://www.w3.org/2000/svg">
<path d="M7.83333 2H5.33333C3.49238 2 2 3.49238 2 5.33333V7.83333C2 9.67428 3.49238 11.1667 5.33333 11.1667H7.83333C9.67428 11.1667 11.1667 9.67428 11.1667 7.83333V5.33333C11.1667 3.49238 9.67428 2 7.83333 2Z" fill="#2ED12E"/>
<path d="M18.6666 2H16.1666C14.3257 2 12.8333 3.49238 12.8333 5.33333V7.83333C12.8333 9.67428 14.3257 11.1667 16.1666 11.1667H18.6666C20.5076 11.1667 22 9.67428 22 7.83333V5.33333C22 3.49238 20.5076 2 18.6666 2Z" fill="#2ED12E"/>
<path d="M7.83333 12.8333H5.33333C3.49238 12.8333 2 14.3257 2 16.1666V18.6666C2 20.5076 3.49238 22 5.33333 22H7.83333C9.67428 22 11.1667 20.5076 11.1667 18.6666V16.1666C11.1667 14.3257 9.67428 12.8333 7.83333 12.8333Z" fill="#2ED12E"/>
<path d="M18.6666 12.8333H16.1666C14.3257 12.8333 12.8333 14.3257 12.8333 16.1666V18.6666C12.8333 20.5076 14.3257 22 16.1666 22H18.6666C20.5076 22 22 20.5076 22 18.6666V16.1666C22 14.3257 20.5076 12.8333 18.6666 12.8333Z" fill="#2ED12E"/>
</svg>
