<svg width="24" height="24" viewBox="0 0 24 24" fill="none" xmlns="http://www.w3.org/2000/svg">
<path d="M12 14.25C13.2405 14.25 14.25 13.2405 14.25 12C14.25 10.7595 13.2405 9.75 12 9.75C10.7595 9.75 9.75 10.7595 9.75 12C9.75 13.2405 10.7595 14.25 12 14.25Z" fill="#333333"/>
<path d="M19.5 14.25C20.7405 14.25 21.75 13.2405 21.75 12C21.75 10.7595 20.7405 9.75 19.5 9.75C18.2595 9.75 17.25 10.7595 17.25 12C17.25 13.2405 18.2595 14.25 19.5 14.25Z" fill="#333333"/>
<path d="M4.5 14.25C5.7405 14.25 6.75 13.2405 6.75 12C6.75 10.7595 5.7405 9.75 4.5 9.75C3.2595 9.75 2.25 10.7595 2.25 12C2.25 13.2405 3.2595 14.25 4.5 14.25Z" fill="#333333"/>
</svg>
