<svg width="20" height="20" viewBox="0 0 20 20" fill="none" xmlns="http://www.w3.org/2000/svg">
<path d="M10 0C4.47768 0 0 4.47768 0 10C0 15.5223 4.47768 20 10 20C15.5223 20 20 15.5223 20 10C20 4.47768 15.5223 0 10 0ZM13.2165 10.154L8.34152 13.7009C8.31479 13.7201 8.28329 13.7316 8.25047 13.734C8.21765 13.7365 8.18479 13.7299 8.15549 13.7149C8.12619 13.6999 8.1016 13.6771 8.08441 13.649C8.06721 13.621 8.05809 13.5887 8.05804 13.5558V6.46652C8.05793 6.43354 8.06695 6.40118 8.08411 6.37302C8.10127 6.34486 8.12589 6.322 8.15525 6.30697C8.1846 6.29195 8.21755 6.28534 8.25042 6.2879C8.2833 6.29045 8.31483 6.30205 8.34152 6.32143L13.2165 9.86607C13.2395 9.88236 13.2583 9.90394 13.2713 9.92899C13.2843 9.95404 13.291 9.98184 13.291 10.01C13.291 10.0383 13.2843 10.0661 13.2713 10.0911C13.2583 10.1162 13.2395 10.1377 13.2165 10.154Z" fill="white"/>
</svg>
