<svg width="5" height="22" viewBox="0 0 5 22" fill="none" xmlns="http://www.w3.org/2000/svg">
<path d="M4.875 18.6875C4.875 19.334 4.61819 19.954 4.16107 20.4111C3.70395 20.8682 3.08397 21.125 2.4375 21.125C1.79103 21.125 1.17105 20.8682 0.713927 20.4111C0.256807 19.954 0 19.334 0 18.6875C0 18.041 0.256807 17.421 0.713927 16.9639C1.17105 16.5068 1.79103 16.25 2.4375 16.25C3.08397 16.25 3.70395 16.5068 4.16107 16.9639C4.61819 17.421 4.875 18.041 4.875 18.6875ZM4.875 10.5625C4.875 11.209 4.61819 11.829 4.16107 12.2861C3.70395 12.7432 3.08397 13 2.4375 13C1.79103 13 1.17105 12.7432 0.713927 12.2861C0.256807 11.829 0 11.209 0 10.5625C0 9.91603 0.256807 9.29605 0.713927 8.83893C1.17105 8.38181 1.79103 8.125 2.4375 8.125C3.08397 8.125 3.70395 8.38181 4.16107 8.83893C4.61819 9.29605 4.875 9.91603 4.875 10.5625ZM4.875 2.4375C4.875 3.08397 4.61819 3.70395 4.16107 4.16107C3.70395 4.61819 3.08397 4.875 2.4375 4.875C1.79103 4.875 1.17105 4.61819 0.713927 4.16107C0.256807 3.70395 0 3.08397 0 2.4375C0 1.79103 0.256807 1.17105 0.713927 0.713927C1.17105 0.256807 1.79103 0 2.4375 0C3.08397 0 3.70395 0.256807 4.16107 0.713927C4.61819 1.17105 4.875 1.79103 4.875 2.4375Z" fill="white"/>
</svg>
