<svg width="24" height="22" viewBox="0 0 24 22" fill="none" xmlns="http://www.w3.org/2000/svg">
<path d="M23.5324 6.34216C23.813 6.24241 24.0003 5.97668 24 5.67883C23.9996 5.38099 23.8116 5.11572 23.5308 5.01663L12.2339 1.0308C12.0826 0.977363 11.9174 0.977363 11.7661 1.0308L0.469219 5.01663C0.188344 5.11568 0.000375562 5.38099 5.61892e-07 5.67883C-0.000374438 5.97668 0.186985 6.24241 0.467625 6.34216L4.94273 7.9331V12.5197C4.94273 13.2767 5.73244 13.9168 7.2899 14.4223C8.64745 14.863 10.3202 15.1056 12 15.1056C13.6799 15.1056 15.3526 14.863 16.7102 14.4223C18.2676 13.9168 19.0574 13.2767 19.0574 12.5197V7.9331L20.905 7.27624V13.6317C20.0833 13.9223 19.4929 14.7064 19.4929 15.6264C19.4929 16.5462 20.0833 17.3305 20.905 17.621V20.3062C20.905 20.6945 21.2198 21.0094 21.6081 21.0094C21.9965 21.0094 22.3113 20.6945 22.3113 20.3062V17.621C23.1329 17.3305 23.7234 16.5463 23.7234 15.6264C23.7234 14.7065 23.1329 13.9223 22.3113 13.6317V6.77627L23.5324 6.34216ZM21.6081 16.3353C21.2172 16.3353 20.8991 16.0173 20.8991 15.6263C20.8991 15.2354 21.2172 14.9173 21.6081 14.9173C21.999 14.9173 22.3171 15.2354 22.3171 15.6263C22.3171 16.0173 21.999 16.3353 21.6081 16.3353ZM12 2.43944L21.1907 5.68221L12 8.94954L2.80926 5.68216L12 2.43944ZM17.6511 12.4137C17.5163 12.5495 17.0339 12.8749 15.945 13.1855C14.7834 13.5169 13.3823 13.6994 12 13.6994C10.6177 13.6994 9.21665 13.5169 8.055 13.1855C6.96614 12.8749 6.4837 12.5496 6.34894 12.4137V8.43302L11.7644 10.3583C11.8406 10.3854 11.9203 10.3989 11.9999 10.3989C12.0796 10.3989 12.1593 10.3854 12.2354 10.3583L17.651 8.43302V12.4137H17.6511Z" fill="#9DA8C3"/>
</svg>
