<svg width="12" height="8" viewBox="0 0 12 8" fill="none" xmlns="http://www.w3.org/2000/svg">
<mask id="path-1-inside-1_2_836" fill="white">
<path d="M6.00278 1.88236L0.788109 7.09702C0.607806 7.2773 0.31549 7.2773 0.135187 7.09702C-0.0450625 6.91669 -0.0450625 6.6244 0.135187 6.4441L5.67632 0.902977C5.85662 0.722728 6.14894 0.722728 6.32924 0.902977L11.8704 6.4441C12.0475 6.62754 12.0424 6.91986 11.859 7.09702C11.6801 7.26983 11.3964 7.26983 11.2174 7.09702L6.00278 1.88236Z"/>
</mask>
<path d="M6.00278 1.88236L0.788109 7.09702C0.607806 7.2773 0.31549 7.2773 0.135187 7.09702C-0.0450625 6.91669 -0.0450625 6.6244 0.135187 6.4441L5.67632 0.902977C5.85662 0.722728 6.14894 0.722728 6.32924 0.902977L11.8704 6.4441C12.0475 6.62754 12.0424 6.91986 11.859 7.09702C11.6801 7.26983 11.3964 7.26983 11.2174 7.09702L6.00278 1.88236Z" fill="#9EA9C3"/>
<path d="M6.00278 1.88236L5.29567 1.17525L6.00278 0.468147L6.70989 1.17525L6.00278 1.88236ZM0.788109 7.09702L1.49522 7.80413L1.49516 7.80418L0.788109 7.09702ZM0.135187 7.09702L-0.571867 7.80418L-0.572079 7.80397L0.135187 7.09702ZM0.135187 6.4441L-0.572026 5.7371L-0.57192 5.73699L0.135187 6.4441ZM5.67632 0.902977L4.96921 0.19587L4.96932 0.195764L5.67632 0.902977ZM6.32924 0.902977L7.03624 0.195764L7.03635 0.19587L6.32924 0.902977ZM11.8704 6.4441L12.5775 5.73699L12.5836 5.74315L12.5897 5.74941L11.8704 6.4441ZM11.859 7.09702L12.5537 7.81633L12.5537 7.81637L11.859 7.09702ZM11.2174 7.09702L10.5227 7.81632L10.5165 7.81028L10.5103 7.80413L11.2174 7.09702ZM6.70989 2.58947L1.49522 7.80413L0.0810029 6.38992L5.29567 1.17525L6.70989 2.58947ZM1.49516 7.80418C0.924347 8.37491 -0.0010516 8.37491 -0.571867 7.80418L0.84224 6.38986C0.632031 6.17969 0.291265 6.17969 0.0810559 6.38986L1.49516 7.80418ZM-0.572079 7.80397C-1.14261 7.23318 -1.14269 6.30793 -0.572026 5.7371L0.842399 7.1511C1.05256 6.94088 1.05249 6.6002 0.842452 6.39008L-0.572079 7.80397ZM-0.57192 5.73699L4.96921 0.19587L6.38342 1.61008L0.842293 7.15121L-0.57192 5.73699ZM4.96932 0.195764C5.54012 -0.374868 6.46544 -0.374868 7.03624 0.195764L5.62224 1.61019C5.83244 1.82032 6.17312 1.82032 6.38332 1.61019L4.96932 0.195764ZM7.03635 0.19587L12.5775 5.73699L11.1633 7.15121L5.62213 1.61008L7.03635 0.19587ZM12.5897 5.74941C13.1505 6.33011 13.1344 7.25549 12.5537 7.81633L11.1643 6.37772C10.9505 6.58423 10.9446 6.92498 11.1511 7.1388L12.5897 5.74941ZM12.5537 7.81637C11.9872 8.36336 11.0892 8.36343 10.5227 7.81632L11.9122 6.37773C11.7035 6.17624 11.3729 6.17631 11.1644 6.37768L12.5537 7.81637ZM10.5103 7.80413L5.29567 2.58947L6.70989 1.17525L11.9246 6.38992L10.5103 7.80413Z" fill="#9DA8C3" mask="url(#path-1-inside-1_2_836)"/>
</svg>
