<svg width="25" height="10" viewBox="0 0 25 10" fill="none" xmlns="http://www.w3.org/2000/svg">
<path d="M3.336 0.431999C3.936 0.431999 4.424 0.572 4.8 0.852C5.184 1.124 5.48 1.476 5.688 1.908C5.904 2.332 6.048 2.8 6.12 3.312C6.2 3.824 6.24 4.32 6.24 4.8C6.24 5.28 6.2 5.776 6.12 6.288C6.048 6.8 5.904 7.272 5.688 7.704C5.48 8.128 5.184 8.48 4.8 8.76C4.424 9.032 3.936 9.168 3.336 9.168C2.736 9.168 2.244 9.032 1.86 8.76C1.484 8.48 1.188 8.128 0.972 7.704C0.764 7.272 0.62 6.8 0.54 6.288C0.468 5.776 0.432 5.28 0.432 4.8C0.432 4.32 0.468 3.824 0.54 3.312C0.62 2.8 0.764 2.332 0.972 1.908C1.188 1.476 1.484 1.124 1.86 0.852C2.244 0.572 2.736 0.431999 3.336 0.431999ZM3.336 8.028C3.632 8.028 3.88 7.944 4.08 7.776C4.28 7.6 4.436 7.368 4.548 7.08C4.668 6.784 4.752 6.44 4.8 6.048C4.848 5.656 4.872 5.24 4.872 4.8C4.872 4.36 4.848 3.948 4.8 3.564C4.752 3.172 4.668 2.828 4.548 2.532C4.436 2.236 4.28 2.004 4.08 1.836C3.88 1.66 3.632 1.572 3.336 1.572C3.032 1.572 2.78 1.66 2.58 1.836C2.388 2.004 2.232 2.236 2.112 2.532C2 2.828 1.92 3.172 1.872 3.564C1.824 3.948 1.8 4.36 1.8 4.8C1.8 5.24 1.824 5.656 1.872 6.048C1.92 6.44 2 6.784 2.112 7.08C2.232 7.368 2.388 7.6 2.58 7.776C2.78 7.944 3.032 8.028 3.336 8.028ZM7.99597 7.38H9.66397V9H7.99597V7.38ZM17.2118 9H11.4758C11.4838 8.304 11.6518 7.696 11.9798 7.176C12.3078 6.656 12.7558 6.204 13.3238 5.82C13.5958 5.62 13.8798 5.428 14.1758 5.244C14.4718 5.052 14.7438 4.848 14.9918 4.632C15.2398 4.416 15.4438 4.184 15.6038 3.936C15.7638 3.68 15.8478 3.388 15.8558 3.06C15.8558 2.908 15.8358 2.748 15.7958 2.58C15.7638 2.404 15.6958 2.244 15.5918 2.1C15.4878 1.948 15.3438 1.824 15.1598 1.728C14.9758 1.624 14.7358 1.572 14.4398 1.572C14.1678 1.572 13.9398 1.628 13.7558 1.74C13.5798 1.844 13.4358 1.992 13.3238 2.184C13.2198 2.368 13.1398 2.588 13.0838 2.844C13.0358 3.1 13.0078 3.376 12.9998 3.672H11.6318C11.6318 3.208 11.6918 2.78 11.8118 2.388C11.9398 1.988 12.1278 1.644 12.3758 1.356C12.6238 1.068 12.9238 0.844 13.2758 0.684C13.6358 0.516 14.0518 0.431999 14.5238 0.431999C15.0358 0.431999 15.4638 0.516 15.8078 0.684C16.1518 0.852 16.4278 1.064 16.6358 1.32C16.8518 1.576 17.0038 1.856 17.0918 2.16C17.1798 2.456 17.2238 2.74 17.2238 3.012C17.2238 3.348 17.1718 3.652 17.0678 3.924C16.9638 4.196 16.8238 4.448 16.6478 4.68C16.4718 4.904 16.2718 5.112 16.0478 5.304C15.8238 5.496 15.5918 5.676 15.3518 5.844C15.1118 6.012 14.8718 6.172 14.6318 6.324C14.3918 6.476 14.1678 6.628 13.9598 6.78C13.7598 6.932 13.5838 7.092 13.4318 7.26C13.2798 7.42 13.1758 7.592 13.1198 7.776H17.2118V9ZM19.0878 0.431999H20.5878V7.704H24.9438V9H19.0878V0.431999Z" fill="#9DA8C3"/>
</svg>
