<svg width="25" height="10" viewBox="0 0 25 10" fill="none" xmlns="http://www.w3.org/2000/svg">
<path opacity="0.75" d="M1.584 4.812C1.584 4.604 1.584 4.376 1.584 4.128C1.592 3.872 1.612 3.62 1.644 3.372C1.684 3.116 1.736 2.868 1.8 2.628C1.872 2.388 1.972 2.18 2.1 2.004C2.236 1.82 2.404 1.672 2.604 1.56C2.804 1.448 3.048 1.392 3.336 1.392C3.624 1.392 3.868 1.448 4.068 1.56C4.268 1.672 4.432 1.82 4.56 2.004C4.696 2.18 4.796 2.388 4.86 2.628C4.932 2.868 4.984 3.116 5.016 3.372C5.056 3.62 5.076 3.872 5.076 4.128C5.084 4.376 5.088 4.604 5.088 4.812C5.088 5.132 5.076 5.492 5.052 5.892C5.036 6.284 4.972 6.656 4.86 7.008C4.756 7.352 4.584 7.644 4.344 7.884C4.104 8.124 3.768 8.244 3.336 8.244C2.904 8.244 2.568 8.124 2.328 7.884C2.088 7.644 1.912 7.352 1.8 7.008C1.696 6.656 1.632 6.284 1.608 5.892C1.592 5.492 1.584 5.132 1.584 4.812ZM0.504 4.824C0.504 5.136 0.512 5.46 0.528 5.796C0.544 6.132 0.584 6.46 0.648 6.78C0.712 7.1 0.804 7.404 0.924 7.692C1.044 7.972 1.208 8.22 1.416 8.436C1.624 8.652 1.884 8.824 2.196 8.952C2.516 9.072 2.896 9.132 3.336 9.132C3.784 9.132 4.164 9.072 4.476 8.952C4.788 8.824 5.048 8.652 5.256 8.436C5.464 8.22 5.628 7.972 5.748 7.692C5.868 7.404 5.96 7.1 6.024 6.78C6.088 6.46 6.128 6.132 6.144 5.796C6.16 5.46 6.168 5.136 6.168 4.824C6.168 4.512 6.16 4.188 6.144 3.852C6.128 3.516 6.088 3.188 6.024 2.868C5.96 2.548 5.868 2.244 5.748 1.956C5.628 1.668 5.464 1.416 5.256 1.2C5.048 0.983999 4.784 0.812 4.464 0.684C4.152 0.556 3.776 0.491999 3.336 0.491999C2.896 0.491999 2.516 0.556 2.196 0.684C1.884 0.812 1.624 0.983999 1.416 1.2C1.208 1.416 1.044 1.668 0.924 1.956C0.804 2.244 0.712 2.548 0.648 2.868C0.584 3.188 0.544 3.516 0.528 3.852C0.512 4.188 0.504 4.512 0.504 4.824ZM8.16397 7.668V9H9.49597V7.668H8.16397ZM13.6238 4.14V5.004C13.8158 4.98 14.0198 4.968 14.2358 4.968C14.4918 4.968 14.7278 5.004 14.9438 5.076C15.1678 5.14 15.3598 5.244 15.5198 5.388C15.6798 5.524 15.8078 5.696 15.9038 5.904C15.9998 6.104 16.0478 6.336 16.0478 6.6C16.0478 6.856 15.9958 7.088 15.8918 7.296C15.7958 7.496 15.6638 7.668 15.4958 7.812C15.3278 7.948 15.1318 8.056 14.9078 8.136C14.6838 8.208 14.4478 8.244 14.1998 8.244C13.6158 8.244 13.1718 8.072 12.8678 7.728C12.5638 7.376 12.4038 6.924 12.3878 6.372H11.3678C11.3598 6.812 11.4198 7.204 11.5478 7.548C11.6838 7.892 11.8758 8.184 12.1238 8.424C12.3718 8.656 12.6718 8.832 13.0238 8.952C13.3758 9.072 13.7678 9.132 14.1998 9.132C14.5998 9.132 14.9758 9.08 15.3278 8.976C15.6878 8.864 15.9998 8.7 16.2638 8.484C16.5278 8.268 16.7358 8 16.8878 7.68C17.0478 7.352 17.1278 6.976 17.1278 6.552C17.1278 6.04 16.9998 5.596 16.7438 5.22C16.4958 4.844 16.1118 4.6 15.5918 4.488V4.464C15.9278 4.312 16.2078 4.088 16.4318 3.792C16.6558 3.496 16.7678 3.156 16.7678 2.772C16.7678 2.38 16.6998 2.04 16.5638 1.752C16.4358 1.464 16.2558 1.228 16.0238 1.044C15.7918 0.859999 15.5158 0.724 15.1958 0.636C14.8838 0.539999 14.5438 0.491999 14.1758 0.491999C13.7518 0.491999 13.3758 0.559999 13.0478 0.696C12.7278 0.832 12.4598 1.02 12.2438 1.26C12.0278 1.5 11.8598 1.788 11.7398 2.124C11.6278 2.46 11.5638 2.832 11.5478 3.24H12.5678C12.5678 2.992 12.5998 2.756 12.6638 2.532C12.7278 2.308 12.8238 2.112 12.9518 1.944C13.0878 1.776 13.2558 1.644 13.4558 1.548C13.6638 1.444 13.9038 1.392 14.1758 1.392C14.6078 1.392 14.9678 1.508 15.2558 1.74C15.5438 1.964 15.6878 2.304 15.6878 2.76C15.6878 2.984 15.6438 3.184 15.5558 3.36C15.4678 3.536 15.3478 3.684 15.1958 3.804C15.0518 3.916 14.8798 4.004 14.6798 4.068C14.4878 4.124 14.2838 4.152 14.0678 4.152H13.8518C13.8118 4.152 13.7718 4.152 13.7318 4.152C13.6998 4.152 13.6638 4.148 13.6238 4.14ZM19.1118 0.431999V9H24.7878V8.04H20.2518V0.431999H19.1118Z" fill="#9DA8C3"/>
</svg>
