<svg width="25" height="10" viewBox="0 0 25 10" fill="none" xmlns="http://www.w3.org/2000/svg">
<path opacity="0.75" d="M1.584 4.812C1.584 4.604 1.584 4.376 1.584 4.128C1.592 3.872 1.612 3.62 1.644 3.372C1.684 3.116 1.736 2.868 1.8 2.628C1.872 2.388 1.972 2.18 2.1 2.004C2.236 1.82 2.404 1.672 2.604 1.56C2.804 1.448 3.048 1.392 3.336 1.392C3.624 1.392 3.868 1.448 4.068 1.56C4.268 1.672 4.432 1.82 4.56 2.004C4.696 2.18 4.796 2.388 4.86 2.628C4.932 2.868 4.984 3.116 5.016 3.372C5.056 3.62 5.076 3.872 5.076 4.128C5.084 4.376 5.088 4.604 5.088 4.812C5.088 5.132 5.076 5.492 5.052 5.892C5.036 6.284 4.972 6.656 4.86 7.008C4.756 7.352 4.584 7.644 4.344 7.884C4.104 8.124 3.768 8.244 3.336 8.244C2.904 8.244 2.568 8.124 2.328 7.884C2.088 7.644 1.912 7.352 1.8 7.008C1.696 6.656 1.632 6.284 1.608 5.892C1.592 5.492 1.584 5.132 1.584 4.812ZM0.504 4.824C0.504 5.136 0.512 5.46 0.528 5.796C0.544 6.132 0.584 6.46 0.648 6.78C0.712 7.1 0.804 7.404 0.924 7.692C1.044 7.972 1.208 8.22 1.416 8.436C1.624 8.652 1.884 8.824 2.196 8.952C2.516 9.072 2.896 9.132 3.336 9.132C3.784 9.132 4.164 9.072 4.476 8.952C4.788 8.824 5.048 8.652 5.256 8.436C5.464 8.22 5.628 7.972 5.748 7.692C5.868 7.404 5.96 7.1 6.024 6.78C6.088 6.46 6.128 6.132 6.144 5.796C6.16 5.46 6.168 5.136 6.168 4.824C6.168 4.512 6.16 4.188 6.144 3.852C6.128 3.516 6.088 3.188 6.024 2.868C5.96 2.548 5.868 2.244 5.748 1.956C5.628 1.668 5.464 1.416 5.256 1.2C5.048 0.983999 4.784 0.812 4.464 0.684C4.152 0.556 3.776 0.491999 3.336 0.491999C2.896 0.491999 2.516 0.556 2.196 0.684C1.884 0.812 1.624 0.983999 1.416 1.2C1.208 1.416 1.044 1.668 0.924 1.956C0.804 2.244 0.712 2.548 0.648 2.868C0.584 3.188 0.544 3.516 0.528 3.852C0.512 4.188 0.504 4.512 0.504 4.824ZM8.16397 7.668V9H9.49597V7.668H8.16397ZM15.2798 9V0.491999H14.4998C14.4438 0.812 14.3398 1.076 14.1878 1.284C14.0358 1.492 13.8478 1.656 13.6238 1.776C13.4078 1.896 13.1638 1.98 12.8918 2.028C12.6198 2.068 12.3398 2.088 12.0518 2.088V2.904H14.2598V9H15.2798ZM19.1118 0.431999V9H24.7878V8.04H20.2518V0.431999H19.1118Z" fill="#9DA8C3"/>
</svg>
