<svg width="26" height="59" viewBox="0 0 26 59" fill="none" xmlns="http://www.w3.org/2000/svg">
<path d="M3.336 25.432C3.936 25.432 4.424 25.572 4.8 25.852C5.184 26.124 5.48 26.476 5.688 26.908C5.904 27.332 6.048 27.8 6.12 28.312C6.2 28.824 6.24 29.32 6.24 29.8C6.24 30.28 6.2 30.776 6.12 31.288C6.048 31.8 5.904 32.272 5.688 32.704C5.48 33.128 5.184 33.48 4.8 33.76C4.424 34.032 3.936 34.168 3.336 34.168C2.736 34.168 2.244 34.032 1.86 33.76C1.484 33.48 1.188 33.128 0.972 32.704C0.764 32.272 0.62 31.8 0.54 31.288C0.468 30.776 0.432 30.28 0.432 29.8C0.432 29.32 0.468 28.824 0.54 28.312C0.62 27.8 0.764 27.332 0.972 26.908C1.188 26.476 1.484 26.124 1.86 25.852C2.244 25.572 2.736 25.432 3.336 25.432ZM3.336 33.028C3.632 33.028 3.88 32.944 4.08 32.776C4.28 32.6 4.436 32.368 4.548 32.08C4.668 31.784 4.752 31.44 4.8 31.048C4.848 30.656 4.872 30.24 4.872 29.8C4.872 29.36 4.848 28.948 4.8 28.564C4.752 28.172 4.668 27.828 4.548 27.532C4.436 27.236 4.28 27.004 4.08 26.836C3.88 26.66 3.632 26.572 3.336 26.572C3.032 26.572 2.78 26.66 2.58 26.836C2.388 27.004 2.232 27.236 2.112 27.532C2 27.828 1.92 28.172 1.872 28.564C1.824 28.948 1.8 29.36 1.8 29.8C1.8 30.24 1.824 30.656 1.872 31.048C1.92 31.44 2 31.784 2.112 32.08C2.232 32.368 2.388 32.6 2.58 32.776C2.78 32.944 3.032 33.028 3.336 33.028ZM7.99597 32.38H9.66397V34H7.99597V32.38ZM17.2118 34H11.4758C11.4838 33.304 11.6518 32.696 11.9798 32.176C12.3078 31.656 12.7558 31.204 13.3238 30.82C13.5958 30.62 13.8798 30.428 14.1758 30.244C14.4718 30.052 14.7438 29.848 14.9918 29.632C15.2398 29.416 15.4438 29.184 15.6038 28.936C15.7638 28.68 15.8478 28.388 15.8558 28.06C15.8558 27.908 15.8358 27.748 15.7958 27.58C15.7638 27.404 15.6958 27.244 15.5918 27.1C15.4878 26.948 15.3438 26.824 15.1598 26.728C14.9758 26.624 14.7358 26.572 14.4398 26.572C14.1678 26.572 13.9398 26.628 13.7558 26.74C13.5798 26.844 13.4358 26.992 13.3238 27.184C13.2198 27.368 13.1398 27.588 13.0838 27.844C13.0358 28.1 13.0078 28.376 12.9998 28.672H11.6318C11.6318 28.208 11.6918 27.78 11.8118 27.388C11.9398 26.988 12.1278 26.644 12.3758 26.356C12.6238 26.068 12.9238 25.844 13.2758 25.684C13.6358 25.516 14.0518 25.432 14.5238 25.432C15.0358 25.432 15.4638 25.516 15.8078 25.684C16.1518 25.852 16.4278 26.064 16.6358 26.32C16.8518 26.576 17.0038 26.856 17.0918 27.16C17.1798 27.456 17.2238 27.74 17.2238 28.012C17.2238 28.348 17.1718 28.652 17.0678 28.924C16.9638 29.196 16.8238 29.448 16.6478 29.68C16.4718 29.904 16.2718 30.112 16.0478 30.304C15.8238 30.496 15.5918 30.676 15.3518 30.844C15.1118 31.012 14.8718 31.172 14.6318 31.324C14.3918 31.476 14.1678 31.628 13.9598 31.78C13.7598 31.932 13.5838 32.092 13.4318 32.26C13.2798 32.42 13.1758 32.592 13.1198 32.776H17.2118V34ZM19.0878 25.432H20.5878V32.704H24.9438V34H19.0878V25.432Z" fill="#9DA8C3"/>
<path opacity="0.75" d="M1.584 51.812C1.584 51.604 1.584 51.376 1.584 51.128C1.592 50.872 1.612 50.62 1.644 50.372C1.684 50.116 1.736 49.868 1.8 49.628C1.872 49.388 1.972 49.18 2.1 49.004C2.236 48.82 2.404 48.672 2.604 48.56C2.804 48.448 3.048 48.392 3.336 48.392C3.624 48.392 3.868 48.448 4.068 48.56C4.268 48.672 4.432 48.82 4.56 49.004C4.696 49.18 4.796 49.388 4.86 49.628C4.932 49.868 4.984 50.116 5.016 50.372C5.056 50.62 5.076 50.872 5.076 51.128C5.084 51.376 5.088 51.604 5.088 51.812C5.088 52.132 5.076 52.492 5.052 52.892C5.036 53.284 4.972 53.656 4.86 54.008C4.756 54.352 4.584 54.644 4.344 54.884C4.104 55.124 3.768 55.244 3.336 55.244C2.904 55.244 2.568 55.124 2.328 54.884C2.088 54.644 1.912 54.352 1.8 54.008C1.696 53.656 1.632 53.284 1.608 52.892C1.592 52.492 1.584 52.132 1.584 51.812ZM0.504 51.824C0.504 52.136 0.512 52.46 0.528 52.796C0.544 53.132 0.584 53.46 0.648 53.78C0.712 54.1 0.804 54.404 0.924 54.692C1.044 54.972 1.208 55.22 1.416 55.436C1.624 55.652 1.884 55.824 2.196 55.952C2.516 56.072 2.896 56.132 3.336 56.132C3.784 56.132 4.164 56.072 4.476 55.952C4.788 55.824 5.048 55.652 5.256 55.436C5.464 55.22 5.628 54.972 5.748 54.692C5.868 54.404 5.96 54.1 6.024 53.78C6.088 53.46 6.128 53.132 6.144 52.796C6.16 52.46 6.168 52.136 6.168 51.824C6.168 51.512 6.16 51.188 6.144 50.852C6.128 50.516 6.088 50.188 6.024 49.868C5.96 49.548 5.868 49.244 5.748 48.956C5.628 48.668 5.464 48.416 5.256 48.2C5.048 47.984 4.784 47.812 4.464 47.684C4.152 47.556 3.776 47.492 3.336 47.492C2.896 47.492 2.516 47.556 2.196 47.684C1.884 47.812 1.624 47.984 1.416 48.2C1.208 48.416 1.044 48.668 0.924 48.956C0.804 49.244 0.712 49.548 0.648 49.868C0.584 50.188 0.544 50.516 0.528 50.852C0.512 51.188 0.504 51.512 0.504 51.824ZM8.16397 54.668V56H9.49597V54.668H8.16397ZM13.6238 51.14V52.004C13.8158 51.98 14.0198 51.968 14.2358 51.968C14.4918 51.968 14.7278 52.004 14.9438 52.076C15.1678 52.14 15.3598 52.244 15.5198 52.388C15.6798 52.524 15.8078 52.696 15.9038 52.904C15.9998 53.104 16.0478 53.336 16.0478 53.6C16.0478 53.856 15.9958 54.088 15.8918 54.296C15.7958 54.496 15.6638 54.668 15.4958 54.812C15.3278 54.948 15.1318 55.056 14.9078 55.136C14.6838 55.208 14.4478 55.244 14.1998 55.244C13.6158 55.244 13.1718 55.072 12.8678 54.728C12.5638 54.376 12.4038 53.924 12.3878 53.372H11.3678C11.3598 53.812 11.4198 54.204 11.5478 54.548C11.6838 54.892 11.8758 55.184 12.1238 55.424C12.3718 55.656 12.6718 55.832 13.0238 55.952C13.3758 56.072 13.7678 56.132 14.1998 56.132C14.5998 56.132 14.9758 56.08 15.3278 55.976C15.6878 55.864 15.9998 55.7 16.2638 55.484C16.5278 55.268 16.7358 55 16.8878 54.68C17.0478 54.352 17.1278 53.976 17.1278 53.552C17.1278 53.04 16.9998 52.596 16.7438 52.22C16.4958 51.844 16.1118 51.6 15.5918 51.488V51.464C15.9278 51.312 16.2078 51.088 16.4318 50.792C16.6558 50.496 16.7678 50.156 16.7678 49.772C16.7678 49.38 16.6998 49.04 16.5638 48.752C16.4358 48.464 16.2558 48.228 16.0238 48.044C15.7918 47.86 15.5158 47.724 15.1958 47.636C14.8838 47.54 14.5438 47.492 14.1758 47.492C13.7518 47.492 13.3758 47.56 13.0478 47.696C12.7278 47.832 12.4598 48.02 12.2438 48.26C12.0278 48.5 11.8598 48.788 11.7398 49.124C11.6278 49.46 11.5638 49.832 11.5478 50.24H12.5678C12.5678 49.992 12.5998 49.756 12.6638 49.532C12.7278 49.308 12.8238 49.112 12.9518 48.944C13.0878 48.776 13.2558 48.644 13.4558 48.548C13.6638 48.444 13.9038 48.392 14.1758 48.392C14.6078 48.392 14.9678 48.508 15.2558 48.74C15.5438 48.964 15.6878 49.304 15.6878 49.76C15.6878 49.984 15.6438 50.184 15.5558 50.36C15.4678 50.536 15.3478 50.684 15.1958 50.804C15.0518 50.916 14.8798 51.004 14.6798 51.068C14.4878 51.124 14.2838 51.152 14.0678 51.152H13.8518C13.8118 51.152 13.7718 51.152 13.7318 51.152C13.6998 51.152 13.6638 51.148 13.6238 51.14ZM19.1118 47.432V56H24.7878V55.04H20.2518V47.432H19.1118Z" fill="#9DA8C3"/>
<path opacity="0.75" d="M1.584 6.812C1.584 6.604 1.584 6.376 1.584 6.128C1.592 5.872 1.612 5.62 1.644 5.372C1.684 5.116 1.736 4.868 1.8 4.628C1.872 4.388 1.972 4.18 2.1 4.004C2.236 3.82 2.404 3.672 2.604 3.56C2.804 3.448 3.048 3.392 3.336 3.392C3.624 3.392 3.868 3.448 4.068 3.56C4.268 3.672 4.432 3.82 4.56 4.004C4.696 4.18 4.796 4.388 4.86 4.628C4.932 4.868 4.984 5.116 5.016 5.372C5.056 5.62 5.076 5.872 5.076 6.128C5.084 6.376 5.088 6.604 5.088 6.812C5.088 7.132 5.076 7.492 5.052 7.892C5.036 8.284 4.972 8.656 4.86 9.008C4.756 9.352 4.584 9.644 4.344 9.884C4.104 10.124 3.768 10.244 3.336 10.244C2.904 10.244 2.568 10.124 2.328 9.884C2.088 9.644 1.912 9.352 1.8 9.008C1.696 8.656 1.632 8.284 1.608 7.892C1.592 7.492 1.584 7.132 1.584 6.812ZM0.504 6.824C0.504 7.136 0.512 7.46 0.528 7.796C0.544 8.132 0.584 8.46 0.648 8.78C0.712 9.1 0.804 9.404 0.924 9.692C1.044 9.972 1.208 10.22 1.416 10.436C1.624 10.652 1.884 10.824 2.196 10.952C2.516 11.072 2.896 11.132 3.336 11.132C3.784 11.132 4.164 11.072 4.476 10.952C4.788 10.824 5.048 10.652 5.256 10.436C5.464 10.22 5.628 9.972 5.748 9.692C5.868 9.404 5.96 9.1 6.024 8.78C6.088 8.46 6.128 8.132 6.144 7.796C6.16 7.46 6.168 7.136 6.168 6.824C6.168 6.512 6.16 6.188 6.144 5.852C6.128 5.516 6.088 5.188 6.024 4.868C5.96 4.548 5.868 4.244 5.748 3.956C5.628 3.668 5.464 3.416 5.256 3.2C5.048 2.984 4.784 2.812 4.464 2.684C4.152 2.556 3.776 2.492 3.336 2.492C2.896 2.492 2.516 2.556 2.196 2.684C1.884 2.812 1.624 2.984 1.416 3.2C1.208 3.416 1.044 3.668 0.924 3.956C0.804 4.244 0.712 4.548 0.648 4.868C0.584 5.188 0.544 5.516 0.528 5.852C0.512 6.188 0.504 6.512 0.504 6.824ZM8.16397 9.668V11H9.49597V9.668H8.16397ZM15.2798 11V2.492H14.4998C14.4438 2.812 14.3398 3.076 14.1878 3.284C14.0358 3.492 13.8478 3.656 13.6238 3.776C13.4078 3.896 13.1638 3.98 12.8918 4.028C12.6198 4.068 12.3398 4.088 12.0518 4.088V4.904H14.2598V11H15.2798ZM19.1118 2.432V11H24.7878V10.04H20.2518V2.432H19.1118Z" fill="#9DA8C3"/>
</svg>
